<?xml version="1.0" encoding="utf-8"?>
<svg xmlns="http://www.w3.org/2000/svg" xmlns:xlink="http://www.w3.org/1999/xlink" version="1.1" id="Capa_1" x="0px" y="0px" viewBox="0 0 512 512" style="enable-background:new 0 0 512 512;" width="512" height="512">
<g>
	<g>
		<g>
			
				<line style="fill:none;stroke:#2257A6;stroke-width:15;stroke-linecap:round;stroke-linejoin:round;stroke-miterlimit:10;" x1="292.389" y1="38.562" x2="292.389" y2="38.562"/>
		</g>
	</g>
	
		<line style="fill:none;stroke:#2257A6;stroke-width:15;stroke-linecap:round;stroke-linejoin:round;stroke-miterlimit:10;" x1="230.264" y1="85.156" x2="294.201" y2="85.156"/>
	<path style="fill:none;stroke:#2257A6;stroke-width:15;stroke-linecap:round;stroke-linejoin:round;stroke-miterlimit:10;" d="M209.571,371.765l23.807-23.807c7.819-7.819,19.799-9.482,29.572-4.308c52.807,27.958,119.762,19.708,164.22-24.75&#xA;		c54.825-54.825,54.587-143.862-0.715-198.39c-52.812-52.073-141.675-52.609-195.079-1.143&#xA;		c-46.118,44.444-54.99,112.557-26.618,166.109c5.16,9.74,3.532,21.677-4.262,29.471l-23.873,23.873"/>
	<path style="fill:none;stroke:#2257A6;stroke-width:15;stroke-linecap:round;stroke-linejoin:round;stroke-miterlimit:10;" d="M201.356,400.588c1.04-1.869,1.841-3.873,2.375-5.964l5.84-22.86l-32.947-32.947l-22.86,5.84c-2.091,0.534-4.094,1.335-5.964,2.375"/>
	<path style="fill:none;stroke:#2257A6;stroke-width:15;stroke-linecap:round;stroke-linejoin:round;stroke-miterlimit:10;" d="M88.485,404.993l-40.202,40.202c-5.858,5.858-5.858,15.355,0,21.213l33.698,33.698c5.858,5.858,15.355,5.858,21.213,0&#xA;		l93.993-93.993c1.647-1.647,3.047-3.508,4.169-5.526l-53.555-53.555c-2.017,1.122-3.879,2.522-5.526,4.169l-28.78,28.78"/>
	
		<circle style="fill:none;stroke:#2257A6;stroke-width:15;stroke-linecap:round;stroke-linejoin:round;stroke-miterlimit:10;" cx="328.33" cy="220.474" r="108.303"/>
	<path style="fill:none;stroke:#F86F26;stroke-width:15;stroke-linecap:round;stroke-linejoin:round;stroke-miterlimit:10;" d="M364.463,243.15l37.277-37.277c5.858-5.858,5.858-15.355,0-21.213l-11.735-11.735c-5.858-5.858-15.355-5.858-21.213,0&#xA;		l-54.455,54.455l-26.47-26.47c-5.858-5.858-15.355-5.858-21.213,0l-11.734,11.734c-5.858,5.858-5.858,15.355,0,21.213l48.81,48.812&#xA;		c5.858,5.858,15.355,5.858,21.213,0l14.331-14.331"/>
	<path style="fill:none;stroke:#2257A6;stroke-width:15;stroke-linecap:round;stroke-linejoin:round;stroke-miterlimit:10;" d="M385.577,92.943v-54.38h-62.125c0-17.155-13.907-31.062-31.062-31.062s-31.062,13.907-31.062,31.062h-62.125v62.125&#xA;		c0,8.284,6.716,15,15,15h21.152"/>
	
		<polyline style="fill:none;stroke:#2257A6;stroke-width:15;stroke-linecap:round;stroke-linejoin:round;stroke-miterlimit:10;" points="432.17,126.481 432.17,85.156 385.577,85.156"/>
	
		<polyline style="fill:none;stroke:#2257A6;stroke-width:15;stroke-linecap:round;stroke-linejoin:round;stroke-miterlimit:10;" points="199.202,85.156 152.608,85.156 152.608,344.984"/>
	
		<line style="fill:none;stroke:#2257A6;stroke-width:15;stroke-linecap:round;stroke-linejoin:round;stroke-miterlimit:10;" x1="121.545" y1="148.672" x2="121.545" y2="371.933"/>
	<path style="fill:none;stroke:#2257A6;stroke-width:15;stroke-linecap:round;stroke-linejoin:round;stroke-miterlimit:10;" d="M199.202,54.094h-52.656c-13.807,0-25,11.193-25,25v34.579"/>
	<path style="fill:none;stroke:#2257A6;stroke-width:15;stroke-linecap:round;stroke-linejoin:round;stroke-miterlimit:10;" d="M463.233,183.365V79.094c0-13.807-11.193-25-25-25h-52.656"/>
	<path style="fill:none;stroke:#2257A6;stroke-width:15;stroke-linecap:round;stroke-linejoin:round;stroke-miterlimit:10;" d="M121.638,481.662c1.096,12.795,11.829,22.838,24.907,22.838h291.688c13.807,0,25-11.193,25-25V256.753"/>
	
		<polyline style="fill:none;stroke:#2257A6;stroke-width:15;stroke-linecap:round;stroke-linejoin:round;stroke-miterlimit:10;" points="152.608,450.692 152.608,473.438 432.17,473.438 432.17,313.637"/>
</g>















</svg>