<?xml version="1.0" encoding="utf-8"?>
<svg xmlns="http://www.w3.org/2000/svg" xmlns:xlink="http://www.w3.org/1999/xlink" version="1.1" width="512" height="512" x="0" y="0" viewBox="0 0 512 512" style="enable-background:new 0 0 512 512" class="">
  <g>
    <path d="m365.53 244.847 45.37-33.202M300.421 45.594l-40.275 40.115M247.621 311.341l57.274-34.266" style="stroke-width:22;stroke-linejoin:round;stroke-miterlimit:10;" fill="none" stroke="#f86f26" stroke-width="22" stroke-linejoin="round" stroke-miterlimit="10" data-original="#33cccc" opacity="1"/>
    <path d="m342.293 198.213 16.235 35.282a55.253 55.253 0 0 0 50.194 32.156h65.275c14.913 0 27.003-12.09 27.003-27.003s-12.09-27.003-27.003-27.003H410.9l-35.223-88.343" style="stroke-width:22;stroke-linejoin:round;stroke-miterlimit:10;" fill="none" stroke="#2257a6" stroke-width="22" stroke-linejoin="round" stroke-miterlimit="10" data-original="#000000" opacity="1"/>
    <path d="m361.638 102.263-61.217-56.669a55.255 55.255 0 0 0-54.383-12.075L159 61.387c-14.203 4.548-22.03 19.748-17.483 33.951 4.548 14.203 19.748 22.03 33.951 17.483l84.678-27.112 29.924 32.925-60.892 51.276a70.283 70.283 0 0 0-25.01 54.379 70.281 70.281 0 0 0 11.361 37.702l40.613 62.451H136.825c-17.545 0-31.768 14.223-31.768 31.768s14.223 31.768 31.768 31.768h125.388a61.48 61.48 0 0 0 45.562-20.202c17.793-19.639 20.999-48.47 7.955-71.538l-28.979-51.252 72.979-61.456a54.224 54.224 0 0 0 1.908-81.267z" style="stroke-width:22;stroke-linejoin:round;stroke-miterlimit:10;" fill="none" stroke="#2257a6" stroke-width="22" stroke-linejoin="round" stroke-miterlimit="10" data-original="#000000" opacity="1"/>
    <path d="m212.232 391.755-42.409 58.915c-10.25 14.239-7.016 34.092 7.223 44.342s34.092 7.016 44.342-7.223l86.389-120.013" style="stroke-width:22;stroke-linejoin:round;stroke-miterlimit:10;" fill="none" stroke="#2257a6" stroke-width="22" stroke-linejoin="round" stroke-miterlimit="10" data-original="#000000" opacity="1"/>
    <circle cx="391.602" cy="61.341" r="50.341" style="stroke-width:22;stroke-linejoin:round;stroke-miterlimit:10;" fill="none" stroke="#2257a6" stroke-width="22" stroke-linejoin="round" stroke-miterlimit="10" data-original="#000000" opacity="1"/>
    <path d="M146.318 217.966H11M160.903 157.966H55M160.903 277.966H55" style="stroke-width:22;stroke-linecap:round;stroke-linejoin:round;stroke-miterlimit:10;" fill="none" stroke="#f86f26" stroke-width="22" stroke-linecap="round" stroke-linejoin="round" stroke-miterlimit="10" data-original="#33cccc" opacity="1"/>
    <path d="m300.439 233.458-62.613-70.831" style="stroke-width:22;stroke-linejoin:round;stroke-miterlimit:10;" fill="none" stroke="#2257a6" stroke-width="22" stroke-linejoin="round" stroke-miterlimit="10" data-original="#000000" opacity="1"/>
  </g>
</svg>