<?xml version="1.0" encoding="utf-8"?>
<svg xmlns="http://www.w3.org/2000/svg" xmlns:xlink="http://www.w3.org/1999/xlink" version="1.1" id="Layer_1" x="0px" y="0px" viewBox="0 0 183 38" style="enable-background:new 0 0 183 38;">
<style type="text/css">
	.st0{fill:#86C446;}
	.st1{fill:#87C446;}
</style>
<g>
	<path class="st0" d="M28.8,0.5c0,0.4-0.1,0.7-0.1,1.1c0,11.4,0,22.9,0,34.4c0,0.4,0,0.7,0,1.2c-2.1,0-4,0.1-6.1,0&#xA;		c-0.8,0-0.8-0.8-0.8-1.4c0-4,0-7.9,0-11.8c0-1.5-0.9-2.7-2.3-3.1c-0.2,0-0.4,0-0.5,0c-3.6,0-7.2,0-10.8,0c-0.3,0.4-0.2,0.7-0.2,1&#xA;		c0,4.6,0,9.3,0,13.9c0,1.3-0.4,1.6-1.6,1.6c-1.8,0-3.5,0.1-5.3,0.1c0-12.2,0-24.6,0-36.8c2.1,0,4.2,0,6.3,0c0.8,0.3,0.8,1,0.8,1.7&#xA;		c0,3.1,0,6.2,0,9.3c0,0.4,0,0.7,0,1.1c0.1,1.3,0.9,2.2,2.1,2.2c3.5,0.2,7,0.1,10.6,0c0.1,0,0.2,0,0.4-0.2c0.2-0.4,0.1-0.8,0.1-1.3&#xA;		c0-3.7,0-7.3,0-11c0-0.7,0-1.5,0.8-1.9C24.5,0.5,26.7,0.5,28.8,0.5z"/>
	<path class="st0" d="M42.6,37.5c-0.5-0.3-1.2-0.3-1.8-0.5c-4-1.1-6.5-3.9-6.8-8.3c-0.4-6.4-0.1-12.9-0.2-19.3&#xA;		c0-0.1,0.1-0.2,0.1-0.4c1.8,0,3.7,0,5.6,0c0.8,0,1,0.6,1,1.4c0,2.3,0,4.7,0,7.1c0,3.1,0,6.1,0,9.2c0,0.5,0,1.1,0.1,1.5&#xA;		c0.4,2.2,1.3,3.2,3.4,3.4c2.1,0.3,4.1,0.1,6.2-0.5c0-0.5,0-0.8,0-1.2c0-6.5,0-12.9,0-19.4c0-1.4,0.3-1.6,1.6-1.6c1.6,0,3.2,0,4.9,0&#xA;		c0,8.8,0,17.6,0,26.5c-2.5,0.8-5.2,1.3-7.8,1.5c-0.3,0-0.5-0.1-0.8,0.2C46.3,37.5,44.5,37.5,42.6,37.5z"/>
	<path class="st0" d="M97.8,37.3c-1.9,0-3.7,0-5.6,0c-0.7,0-0.9-0.6-0.9-1.3c0-4.4,0-8.9,0-13.3c0-1.6,0-3.2-0.1-4.8&#xA;		c-0.3-2.3-1.4-3.5-3.8-3.5c-1.4,0-2.8,0.3-4,1.3c0,0.3,0,0.6,0,1c0,6.4,0,12.7,0,19.1c0,1.3-0.2,1.4-1.4,1.5c-1.3,0-2.5,0.1-3.8,0&#xA;		c-1,0-1.3-0.4-1.3-1.4c0-5.2,0-10.4,0-15.8c0-1.1-0.1-2.1-0.3-3.1c-0.3-1.4-1.2-2.2-2.5-2.4c-1.7-0.4-3.4-0.3-5.2,0.3&#xA;		c0,0.4,0,0.7,0,1c0,6.6,0,13.1,0,19.7c0,1.4-0.2,1.6-1.6,1.6c-1.6,0-3.2,0-4.9,0c0-8.9,0-17.7,0-26.7c6-1.8,12.2-3,18.2,0.3&#xA;		c3.6-2,7.4-2.6,11.4-1.4c3.7,1.1,5.8,4,5.8,8.1c0.1,6.5,0,12.9,0,19.4C97.8,36.9,97.8,37,97.8,37.3z"/>
	<path class="st1" d="M130.7,37.3c0-9,0-17.8,0-26.7c1.7-0.5,3.4-0.9,5.2-1.2c3.2-0.5,6.6-0.8,9.9-0.3c4.5,0.7,7.3,3.5,7.6,8.1&#xA;		c0.4,6.7,0.1,13.2,0.2,19.9c0,0.1-0.1,0.1-0.1,0.3c-1.8,0-3.7,0.1-5.6,0c-0.8,0-0.9-0.7-0.9-1.3c0-2.9,0-5.7,0-8.5c0-2.5,0-5,0-7.7&#xA;		c0-0.5,0-0.9,0-1.3c-0.2-2.5-1.4-3.7-3.9-3.9c-1.9-0.1-3.8,0-5.8,0.5c0,0.4,0,0.7,0,1.1c0,6.5,0,13,0,19.5c0,1.4-0.3,1.7-1.7,1.7&#xA;		C134,37.3,132.4,37.3,130.7,37.3z"/>
	<path class="st1" d="M167.1,9c-4.4,0.8-7.5,3.3-8.4,7.7c-0.9,4.6-1,9.3,0.2,13.9c0.9,3.5,3.1,5.8,6.8,6.7c0.4,0.1,0.9,0,1.3,0.3&#xA;		c0.9,0,1.7,0,2.6,0c1.8-0.5,3.6-1.3,5-2.9c0,0.4,0,0.5,0,0.7c0,1.7,0.3,1.9,1.9,1.9c0.4,0,0.7,0,1,0c1.2,0,2.4,0,3.6,0&#xA;		c0-9.1,0-17.9,0-26.8C178.2,9.4,170.6,8.3,167.1,9z M174.4,30.4c-1.9,1.7-4.1,2.1-6.5,1.4c-1.7-0.5-2.6-1.8-2.9-3.4&#xA;		c-0.6-3.4-0.6-6.8,0-10.2c0.4-2.7,2-3.8,4.7-3.9c1.1,0,2.1,0,3.1,0.1c0.5,0,1.1,0.1,1.6,0.2C174.4,19.9,174.4,25.1,174.4,30.4z"/>
	<path class="st1" d="M125,10.4c-4.3-1.2-8.6-1.9-13.1-1.4c-5,0.5-8.4,3.5-9.2,8.5c-0.7,4-0.6,8.2,0.1,12.2c0.5,2.6,1.7,4.9,4,6.4&#xA;		c1.3,0.9,2.8,1.3,4.3,1.5c0.9,0,1.7,0,2.6,0c1.8-0.5,3.5-1.4,5-2.9c0,0.6,0,1.1,0,1.5c0,0.5,0.4,1,0.9,1c1.9,0.1,3.8,0,5.7,0&#xA;		c0-9,0-17.8,0-26.7C125.2,10.5,125.1,10.4,125,10.4z M118.6,30.4c-1.9,1.7-4.1,2.1-6.6,1.4c-1.9-0.5-2.7-2.1-3-3.8&#xA;		c-0.4-3.3-0.5-6.6,0.1-9.9c0.4-2.5,1.9-3.7,4.5-3.8c1.1,0,2.2,0,3.2,0.1c0.5,0,1.1,0.1,1.7,0.2C118.6,19.9,118.6,25.1,118.6,30.4z"/>
</g>
</svg>