<?xml version="1.0" encoding="utf-8"?>
<svg xmlns="http://www.w3.org/2000/svg" xmlns:xlink="http://www.w3.org/1999/xlink" version="1.1" x="0px" y="0px" viewBox="0 0 402.5 101.6" style="enable-background:new 0 0 402.5 101.6;">
<style type="text/css">
	.st0{fill:#FBBFA5;}
	.st1{fill:#CD9D89;}
	.st2{fill:#3C2415;}
	.st3{fill:#F4763B;}
	.st4{fill:#FFDE17;}
	.st5{fill:#C5970B;}
	.st6{fill:#E6B00F;}
	.st7{fill:#FFCA46;}
	.st8{fill:#FFC20E;}
	.st9{opacity:0.5;fill:#FFFFFF;}
	.st10{fill:#FCB116;}
	.st11{opacity:0.5;}
	.st12{fill:#FFFFFF;}
</style>
<g id="Layer_1">
	<g>
		<path d="M119.2,17.3h5.7l-7.6,27.1h-5.4l-3.3-15.8l-1-5.2l-1,5.2l-3.3,15.8h-5.3l-7.7-27.1h6l3.6,15.5l0.8,4.3l0.8-4.2l3-15.6h6    l3.2,15.5l0.8,4.3l0.8-4.1L119.2,17.3z"/>
		<path d="M140.3,45.1c-3.9,0-6.8-1.1-8.9-3.2c-2.7-2.6-4.1-6.3-4.1-11.2c0-5,1.4-8.7,4.1-11.2c2-2.1,5-3.2,8.9-3.2    c3.9,0,6.8,1.1,8.9,3.2c2.7,2.5,4.1,6.2,4.1,11.2c0,4.9-1.4,8.6-4.1,11.2C147.2,44,144.2,45.1,140.3,45.1z M145.7,37.8    c1.3-1.7,2-4,2-7.1c0-3-0.7-5.4-2-7c-1.3-1.7-3.1-2.5-5.3-2.5s-4,0.8-5.4,2.5c-1.3,1.7-2,4-2,7.1c0,3,0.7,5.4,2,7.1    c1.3,1.7,3.1,2.5,5.4,2.5S144.3,39.5,145.7,37.8z"/>
		<path d="M169.1,33.7h-5.8v10.6h-5.5V17.3H171c1.9,0,3.4,0.3,4.4,0.7c1,0.4,1.9,1.1,2.6,1.9c0.6,0.7,1.1,1.4,1.4,2.3    s0.5,1.8,0.5,2.8c0,1.3-0.3,2.5-1,3.8s-1.7,2.1-3.2,2.6c1.2,0.5,2.1,1.2,2.7,2.1c0.5,0.9,0.8,2.3,0.8,4.2v1.8c0,1.2,0,2.1,0.1,2.5    c0.1,0.7,0.5,1.2,1,1.5v0.7h-6.2c-0.2-0.6-0.3-1.1-0.4-1.5c-0.1-0.8-0.2-1.5-0.2-2.3l0-2.5c0-1.7-0.3-2.9-0.9-3.5    C171.9,34,170.8,33.7,169.1,33.7z M172.5,28.8c1.1-0.5,1.7-1.5,1.7-3c0-1.6-0.5-2.7-1.6-3.3c-0.6-0.3-1.5-0.5-2.8-0.5h-6.6v7.3    h6.4C170.9,29.2,171.9,29.1,172.5,28.8z"/>
		<path d="M208.7,44.3h-7.3l-8.4-11.8l-2.7,2.8v9.1h-5.6V17.3h5.6v11.1l10.4-11.1h7.3l-11.1,11.1L208.7,44.3z"/>
		<path d="M230.8,32.5h-13.1v7h15v4.9h-20.5V17.3h19.8V22h-14.3v5.7h13.1V32.5z"/>
		<path d="M248.5,33.7h-5.8v10.6h-5.5V17.3h13.3c1.9,0,3.4,0.3,4.4,0.7c1,0.4,1.9,1.1,2.6,1.9c0.6,0.7,1.1,1.4,1.4,2.3    s0.5,1.8,0.5,2.8c0,1.3-0.3,2.5-1,3.8s-1.7,2.1-3.2,2.6c1.2,0.5,2.1,1.2,2.7,2.1c0.5,0.9,0.8,2.3,0.8,4.2v1.8c0,1.2,0,2.1,0.1,2.5    c0.1,0.7,0.5,1.2,1,1.5v0.7h-6.2c-0.2-0.6-0.3-1.1-0.4-1.5c-0.1-0.8-0.2-1.5-0.2-2.3l0-2.5c0-1.7-0.3-2.9-0.9-3.5    C251.3,34,250.2,33.7,248.5,33.7z M251.9,28.8c1.1-0.5,1.7-1.5,1.7-3c0-1.6-0.5-2.7-1.6-3.3c-0.6-0.3-1.5-0.5-2.8-0.5h-6.6v7.3    h6.4C250.3,29.2,251.3,29.1,251.9,28.8z"/>
		<path d="M268.9,21.2c0,1.8-0.4,3.3-1.3,4.4c-0.9,1.1-2.2,1.8-3.8,2.1v-1.9c1.2-0.4,2-1,2.5-1.9c0.2-0.5,0.3-1.1,0.3-1.6h-2.9v-4.8    h5.2V21.2z"/>
		<path d="M284.4,40.4c1.3,0,2.4-0.1,3.2-0.4c1.6-0.6,2.4-1.6,2.4-3.1c0-0.9-0.4-1.6-1.2-2.1c-0.8-0.5-2-0.9-3.7-1.3l-2.9-0.6    c-2.8-0.6-4.8-1.3-5.8-2.1c-1.8-1.2-2.7-3.2-2.7-5.9c0-2.4,0.9-4.4,2.6-6s4.4-2.4,7.8-2.4c2.9,0,5.3,0.8,7.3,2.3s3.1,3.7,3.2,6.6    h-5.4c-0.1-1.6-0.8-2.8-2.1-3.5c-0.9-0.5-2-0.7-3.3-0.7c-1.5,0-2.6,0.3-3.5,0.9c-0.9,0.6-1.3,1.4-1.3,2.5c0,1,0.4,1.7,1.3,2.2    c0.6,0.3,1.7,0.7,3.5,1.1l4.7,1.1c2,0.5,3.6,1.1,4.6,2c1.6,1.3,2.4,3.1,2.4,5.5c0,2.5-0.9,4.5-2.8,6.2c-1.9,1.6-4.6,2.5-8,2.5    c-3.5,0-6.3-0.8-8.3-2.4c-2-1.6-3-3.8-3-6.6h5.4c0.2,1.2,0.5,2.2,1,2.8C280.6,39.9,282.2,40.4,284.4,40.4z"/>
		<path d="M112,87.4c-2,1.8-4.6,2.8-7.7,2.8c-3.9,0-7-1.2-9.2-3.7c-2.2-2.5-3.3-5.9-3.3-10.3c0-4.7,1.3-8.4,3.8-10.9    c2.2-2.2,5-3.3,8.4-3.3c4.6,0,7.9,1.5,10,4.5c1.2,1.7,1.8,3.4,1.9,5h-5.7c-0.4-1.3-0.8-2.3-1.4-2.9c-1-1.2-2.6-1.8-4.6-1.8    c-2.1,0-3.7,0.8-4.9,2.5s-1.8,4-1.8,7s0.6,5.3,1.9,6.8s2.8,2.3,4.8,2.3c2,0,3.5-0.6,4.5-1.9c0.6-0.7,1.1-1.7,1.4-3.1h5.6    C115.2,83.2,114,85.6,112,87.4z"/>
		<path d="M132,90.2c-3.9,0-6.8-1.1-8.9-3.2c-2.7-2.6-4.1-6.3-4.1-11.2c0-5,1.4-8.7,4.1-11.2c2-2.1,5-3.2,8.9-3.2    c3.9,0,6.8,1.1,8.9,3.2c2.7,2.5,4.1,6.2,4.1,11.2c0,4.9-1.4,8.6-4.1,11.2C138.8,89.1,135.9,90.2,132,90.2z M137.3,82.9    c1.3-1.7,2-4,2-7.1c0-3-0.7-5.4-2-7c-1.3-1.7-3.1-2.5-5.3-2.5s-4,0.8-5.4,2.5c-1.3,1.7-2,4-2,7.1c0,3,0.7,5.4,2,7.1    c1.3,1.7,3.1,2.5,5.4,2.5S136,84.6,137.3,82.9z"/>
		<path d="M154.4,89.4h-5.3V62.4h8.2l4.9,21.3l4.9-21.3h8.1v27.1h-5.3V71.1c0-0.5,0-1.3,0-2.2s0-1.7,0-2.2L165,89.4h-5.5l-5.1-22.7    c0,0.5,0,1.2,0,2.2s0,1.7,0,2.2V89.4z"/>
		<path d="M192.1,79.7h-5.7v9.7h-5.6V62.4h11.8c2.7,0,4.9,0.7,6.5,2.1s2.4,3.6,2.4,6.5c0,3.2-0.8,5.5-2.4,6.8    C197.4,79.1,195.1,79.7,192.1,79.7z M194.7,74.1c0.7-0.6,1.1-1.7,1.1-3.1s-0.4-2.4-1.1-3c-0.7-0.6-1.8-0.9-3.1-0.9h-5.3v8h5.3    C192.9,75.1,194,74.7,194.7,74.1z"/>
		<path d="M224.5,77.6h-13.1v7h15v4.9h-20.5V62.4h19.8v4.8h-14.3v5.7h13.1V77.6z"/>
		<path d="M252.6,89.4H247l-11.1-19.2v19.2h-5.3V62.4h5.9l10.8,18.9V62.4h5.3V89.4z"/>
		<path d="M267.7,85.5c1.3,0,2.4-0.1,3.2-0.4c1.6-0.6,2.4-1.6,2.4-3.1c0-0.9-0.4-1.6-1.2-2.1c-0.8-0.5-2-0.9-3.7-1.3l-2.9-0.6    c-2.8-0.6-4.8-1.3-5.8-2.1c-1.8-1.2-2.7-3.2-2.7-5.9c0-2.4,0.9-4.4,2.6-6s4.4-2.4,7.8-2.4c2.9,0,5.3,0.8,7.3,2.3s3.1,3.7,3.2,6.6    h-5.4c-0.1-1.6-0.8-2.8-2.1-3.5c-0.9-0.5-2-0.7-3.3-0.7c-1.5,0-2.6,0.3-3.5,0.9c-0.9,0.6-1.3,1.4-1.3,2.5c0,1,0.4,1.7,1.3,2.2    c0.6,0.3,1.7,0.7,3.5,1.1l4.7,1.1c2,0.5,3.6,1.1,4.6,2c1.6,1.3,2.4,3.1,2.4,5.5c0,2.5-0.9,4.5-2.8,6.2c-1.9,1.6-4.6,2.5-8,2.5    c-3.5,0-6.3-0.8-8.3-2.4c-2-1.6-3-3.8-3-6.6h5.4c0.2,1.2,0.5,2.2,1,2.8C263.9,85,265.5,85.5,267.7,85.5z"/>
		<path d="M298.8,83.9h-10l-1.9,5.6h-5.9l9.7-27.1h6.4l9.6,27.1h-6.1L298.8,83.9z M297.3,79.2l-3.4-10.6l-3.5,10.6H297.3z"/>
		<path d="M327,62.4v4.8h-8.1v22.3h-5.7V67.2h-8.1v-4.8H327z"/>
		<path d="M329.9,62.4h5.6v27.1h-5.6V62.4z"/>
		<path d="M352.8,90.2c-3.9,0-6.8-1.1-8.9-3.2c-2.7-2.6-4.1-6.3-4.1-11.2c0-5,1.4-8.7,4.1-11.2c2-2.1,5-3.2,8.9-3.2s6.8,1.1,8.9,3.2    c2.7,2.5,4.1,6.2,4.1,11.2c0,4.9-1.4,8.6-4.1,11.2C359.6,89.1,356.6,90.2,352.8,90.2z M358.1,82.9c1.3-1.7,2-4,2-7.1    c0-3-0.7-5.4-2-7c-1.3-1.7-3.1-2.5-5.3-2.5s-4,0.8-5.4,2.5c-1.3,1.7-2,4-2,7.1c0,3,0.7,5.4,2,7.1c1.3,1.7,3.1,2.5,5.4,2.5    S356.8,84.6,358.1,82.9z"/>
		<path d="M391.9,89.4h-5.7l-11.1-19.2v19.2H370V62.4h5.9l10.8,18.9V62.4h5.3V89.4z"/>
	</g>
</g>
<g id="Layer_2">
	<g>
		<g>
			<rect x="35" y="62.5" class="st0" width="13.2" height="8"/>
			<path class="st1" d="M45,68.3c1.1-0.5,2.2-1.1,3.2-1.7v-4H35v4.9C38.2,68.8,41.7,69.7,45,68.3z"/>
			<g>
				<path class="st0" d="M57.9,49.7c-0.4,2.2-1.8,3.7-3,3.5c-1.2-0.2-1.9-2.2-1.5-4.4c0.4-2.2,1.8-3.7,3-3.5      C57.6,45.5,58.3,47.5,57.9,49.7z"/>
			</g>
			<g>
				<path class="st0" d="M25.5,50.2c0.4,2.2,1.8,3.7,3,3.5c1.2-0.2,1.9-2.2,1.5-4.4c-0.4-2.2-1.8-3.7-3-3.5      C25.8,46,25.1,48,25.5,50.2z"/>
			</g>
			<path class="st0" d="M55.4,52.2c-0.2,2.7-1.7,5.2-3.1,7.2C48.7,64.8,47.3,67,42,67c-5.1,0-5.9-1.3-9.8-5.6     c-2-2.1-3.1-4.9-3.8-7.4L28,51.3c-0.3-2.4-0.3-5.9-0.3-5.9c0.1-5,0.5-10.1,2.8-13.2c2.7-3.7,7.1-4.6,11.3-4.6     c3.8,0,8.1,1,10.7,4.2c2.5,3.1,3,7.8,3,12.9c0,0.2,0,0.4,0,0.6C55.5,45.2,55.5,51.2,55.4,52.2z"/>
			<path class="st0" d="M72.1,89.4l-2-9.9c-3.1-4.3-10.6-6.6-10.6-6.6L48,69H35.3l-11.1,4.2c0,0-7.2,2.5-10.1,7.5l-2.6,8.6H72.1z"/>
			<path class="st2" d="M32.3,35.5c0,0,5.3,3.8,19.5,2.9c0,0,3.5,8,2.6,11.3h1.1l1.2-3.9c0,0,1.7-3.4,1.4-10.3c0,0-1-6-4.8-9     c0,0,1.1-0.8,2.4,1.1c0,0-1.1-4.1-8.5-4.6c0,0,2.1-0.1,3.8,0c0,0-4.7-2.4-8.9-0.7c0,0,1-1.5,3-1.5c0,0-5.1-0.1-8,2.6     c0,0,1.4-1.8,2.9-2.8c0,0-6.7,1.3-7.8,4.7c0,0,0.3-2.4,1.1-3.5c0,0-3.6,2.4-3.2,6.3C30.1,28.3,28.2,32.2,32.3,35.5z"/>
			<path class="st2" d="M29,49.7h-1.1l-1.7-4.9c0,0-3-6.3-0.8-12.9c0,0,1.2-5,6.1-5.1c0,0-1.8,8.9-2.8,16L29,49.7z"/>
			<path d="M72.1,89.4l-2-9.9C68.7,75.6,59.9,73,59.9,73L48,69l-6.3,10l-6.3-10L23,73.6c0,0-7.8,2.5-9.7,9l-1.9,6.7H72.1z"/>
			<path class="st3" d="M25.2,89.4h33.2c-0.7-2.1-2.4-9,1.1-16.5l-6.9-2.3l-11,18.6l-11-18.3l-6.4,2.4     C28.5,79.7,26.3,86.8,25.2,89.4z"/>
			<g>
				<path class="st4" d="M33.7,89.4c-2-12.1-4.2-17.8-4.3-18.2l-3.1,1.2c0,0.8,1.5,6,2.8,17H33.7z"/>
			</g>
			<g>
				<path class="st4" d="M53.4,89.4c1.4-11.8,3-17.5,3.1-17.5l-2.9-1c-0.1,0.3-2.4,6.3-4.5,18.6H53.4z"/>
			</g>
			<g>
				<path class="st5" d="M57.2,31.7c-7.7-1.9-16.2-1-16.2-1s-8.5-0.8-16.2,1c0,0-4.1,0.5-2.4,2.9c0,0,1.8,3.6,6.3,4.8      c0,0,3.3,1.2,12.2,1.2c8.9,0.1,12.2-1.3,12.2-1.3c4.8-1.2,6.2-4.4,6.2-4.4C60.8,32.4,57.2,31.7,57.2,31.7z"/>
				<path class="st6" d="M57.2,30.8c-7.7-1.9-16.2-1-16.2-1s-8.5-0.8-16.2,1c0,0-4.1,0.5-2.4,2.9c0,0,1.8,3.6,6.3,4.8      c0,0,3.3,1.2,12.2,1.2c8.9,0.1,12.2-1.3,12.2-1.3c4.8-1.2,6.2-4.4,6.2-4.4C60.8,31.5,57.2,30.8,57.2,30.8z"/>
				<path class="st7" d="M53.9,36.9c0,0-3.2,1.3-11.7,1.3c-8.6,0-11.7-1.1-11.7-1.1c-4.3-1.2-6.1-4.6-6.1-4.6      c-0.4-0.5-0.5-1-0.4-1.3c-0.8,0.4-1.4,1.1-0.5,2.3c0,0,1.7,3.5,6.1,4.6c0,0,3.2,1.1,11.7,1.1c8.6,0.1,11.7-1.3,11.7-1.3      c2.9-0.7,4.4-2.2,5.2-3.1C57.3,35.5,55.9,36.4,53.9,36.9z"/>
				<path class="st8" d="M57.7,33C57.7,33,57.7,33,57.7,33c0-0.1,0-0.1,0-0.2c-0.3-10.8-7.6-19.4-16.5-19.4      c-9.1,0-16.5,8.9-16.5,19.8h0.1c0.9,1.6,7.9,2.8,16.4,2.8c8.5,0,15.5-1.2,16.4-2.8h0.1C57.7,33.2,57.7,33.1,57.7,33z"/>
				<path class="st9" d="M55.9,32.4C55.9,32.4,55.9,32.4,55.9,32.4c-0.2-7-4.3-12.8-9.7-14.2c4.6,2,8,7.3,8.1,13.6c0,0,0,0,0,0.1      c0,0,0,0,0,0c0,0.1,0,0.1,0,0.2h-0.1c-0.7,1.2-5.9,2.1-12.3,2.1c-4.1,0-7.7-0.4-10-1c1.8,0.9,6.3,1.5,11.5,1.5      c6.4,0,11.6-0.9,12.3-2.1h0.1C55.9,32.6,55.9,32.6,55.9,32.4C55.9,32.5,55.9,32.5,55.9,32.4z"/>
				<path class="st10" d="M45.7,16.7c2.1,0,4.1,0.5,5.9,1.3c-2.9-2.8-6.5-4.5-10.5-4.5c-9.1,0-16.5,8.9-16.5,19.8h0.1      c0.4,0.7,2.1,1.3,4.5,1.8C29.9,24.8,37,16.7,45.7,16.7z"/>
				<path class="st5" d="M41.1,11.1L41.1,11.1c-0.1,0-0.1,0-0.2,0c-0.1,0-0.1,0-0.2,0v0c-7.9,0.5-7,4.4-7,4.4      c1.5,5.2,1.5,20.4,1.5,20.4c2.7,0.3,5.1,0.5,5.7,0.5c0.6,0,2.9-0.1,5.7-0.3c0,0,0-15.3,1.5-20.5C48.1,15.5,49,11.6,41.1,11.1z"/>
				<path class="st8" d="M41.1,11.1L41.1,11.1c0,0-0.1,0-0.1,0c0,0-0.1,0-0.1,0v0c-7.1,0.5-6.4,4.4-6.4,4.4      c1.4,5.2,1.4,20.4,1.4,20.4c2.5,0.3,4.6,0.5,5.1,0.5c0.6,0,2.7-0.1,5.1-0.3c0,0,0-15.3,1.4-20.5C47.5,15.5,48.3,11.6,41.1,11.1z"/>
				<path class="st10" d="M37.9,18c0,0-0.8-4,6.4-4.4v0c0,0,0.1,0,0.1,0c0,0,0.1,0,0.1,0v0c1.1,0.1,2,0.2,2.8,0.4      c-0.5-1.2-1.9-2.6-6.2-2.9v0c0,0-0.1,0-0.1,0c0,0-0.1,0-0.1,0v0c-7.1,0.5-6.4,4.4-6.4,4.4c1.4,5.2,1.4,20.4,1.4,20.4      c1.3,0.1,2.5,0.3,3.4,0.4C39.1,31.9,38.9,22,37.9,18z"/>
				<g class="st11">
					<path class="st12" d="M44,36c-0.4-7.8,1.2-17.6,1.2-17.7l0,0c0.4-2.2,0-2.8-0.1-2.9l-0.1,0l0,0c-1.1-1-3.3-0.8-4-0.5l0,0       c0.3-0.2,3-1.4,4.5-0.3c0.3,0.2,1.2,1,0.6,3.9c0,0.3-1.6,9.9-1.2,17.5L44,36z"/>
				</g>
			</g>
		</g>
	</g>
</g>
</svg>