<?xml version="1.0" encoding="utf-8"?>
<svg xmlns="http://www.w3.org/2000/svg" xmlns:xlink="http://www.w3.org/1999/xlink" version="1.1" id="Capa_1" x="0px" y="0px" viewBox="0 0 512.001 512.001" style="enable-background:new 0 0 512.001 512.001;">
<g>
	<g>
		<path fill="#2257A6" d="M480.349,287.845V149.196c0.164-0.618,0.259-1.263,0.259-1.932V65.72c0-4.162-3.373-7.534-7.534-7.534h-0.259h-46.811&#xD;&#xA;			V30.96c0-16.483-13.411-29.894-29.894-29.894c-16.484,0-29.894,13.411-29.894,29.894v27.226H195.962h-2.009&#xD;&#xA;			c-4.161,0-7.534,3.372-7.534,7.534s3.373,7.534,7.534,7.534h2.009h170.255V89.87c0,16.483,13.411,29.894,29.894,29.894&#xD;&#xA;			c16.484,0,29.894-13.411,29.894-29.894V73.253h39.278v66.477h-91.531c-4.161,0-7.534,3.372-7.534,7.534&#xD;&#xA;			c0,4.162,3.373,7.534,7.534,7.534h91.53v117.579c-11.721-10.206-25.03-18.26-39.321-23.902c-0.174-0.068-0.349-0.135-0.522-0.203&#xD;&#xA;			c-0.757-0.295-1.516-0.586-2.277-0.868c-0.419-0.155-0.84-0.305-1.26-0.457c-0.515-0.185-1.031-0.368-1.548-0.546&#xD;&#xA;			c-0.577-0.2-1.156-0.394-1.736-0.586c-0.352-0.115-0.704-0.231-1.057-0.344c-0.705-0.227-1.413-0.449-2.123-0.665&#xD;&#xA;			c-0.208-0.063-0.416-0.125-0.625-0.186c-0.832-0.248-1.666-0.49-2.504-0.722c-0.036-0.01-0.072-0.019-0.107-0.029&#xD;&#xA;			c-2.162-0.597-4.344-1.142-6.547-1.633v-44.268c0-4.162-3.373-7.534-7.534-7.534h-48.54c-4.161,0-7.534,3.372-7.534,7.534v45.302&#xD;&#xA;			c-39.732,10.256-72.475,38.07-89.445,74.633c-0.026,0.055-0.052,0.111-0.078,0.167c-0.385,0.832-0.759,1.667-1.127,2.508&#xD;&#xA;			c-0.091,0.208-0.184,0.416-0.274,0.626c-0.307,0.711-0.607,1.425-0.902,2.143c-0.139,0.336-0.276,0.67-0.412,1.007&#xD;&#xA;			c-0.247,0.614-0.488,1.23-0.727,1.849c-0.169,0.437-0.336,0.874-0.5,1.313c-0.202,0.54-0.399,1.083-0.595,1.626&#xD;&#xA;			c-0.186,0.517-0.369,1.035-0.548,1.554c-0.167,0.483-0.331,0.968-0.492,1.453c-0.193,0.579-0.382,1.158-0.565,1.739&#xD;&#xA;			c-0.142,0.444-0.28,0.89-0.417,1.336c-0.191,0.625-0.378,1.251-0.56,1.878c-0.121,0.415-0.239,0.83-0.356,1.246&#xD;&#xA;			c-0.185,0.66-0.364,1.322-0.538,1.985c-0.104,0.397-0.209,0.794-0.309,1.191c-0.174,0.684-0.341,1.37-0.503,2.057&#xD;&#xA;			c-0.091,0.386-0.183,0.77-0.271,1.157c-0.161,0.705-0.313,1.412-0.463,2.12c-0.079,0.375-0.159,0.749-0.235,1.126&#xD;&#xA;			c-0.146,0.722-0.282,1.445-0.417,2.17c-0.068,0.371-0.139,0.74-0.205,1.112c-0.13,0.735-0.25,1.474-0.368,2.212&#xD;&#xA;			c-0.058,0.365-0.119,0.727-0.174,1.093c-0.114,0.754-0.217,1.512-0.318,2.269c-0.047,0.354-0.098,0.705-0.143,1.06&#xD;&#xA;			c-0.097,0.778-0.184,1.56-0.268,2.341c-0.036,0.339-0.077,0.675-0.112,1.014c-0.081,0.815-0.151,1.632-0.218,2.451&#xD;&#xA;			c-0.025,0.308-0.056,0.616-0.079,0.924c-0.067,0.899-0.122,1.8-0.172,2.701c-0.013,0.231-0.031,0.462-0.042,0.693&#xD;&#xA;			c-0.057,1.137-0.101,2.277-0.131,3.419v0.005c0,0.012,0,0.023,0,0.035c-0.028,1.136-0.042,2.268-0.043,3.399&#xD;&#xA;			c0,0.024-0.001,0.047-0.001,0.07c0,0.173,0.006,0.345,0.007,0.517c0.003,0.979,0.014,1.957,0.037,2.932&#xD;&#xA;			c0.002,0.092,0.007,0.185,0.009,0.277c0.393,15.051,3.21,29.663,8.422,43.634H131.289c-4.161,0-7.534,3.372-7.534,7.534&#xD;&#xA;			s3.373,7.534,7.534,7.534H255.24c22.657,43.656,68.29,73.554,120.779,73.554c74.981,0,135.982-61.001,135.982-135.981&#xD;&#xA;			C512,341.839,500.096,311.455,480.349,287.845z M410.937,65.72v24.15c0,8.176-6.651,14.826-14.826,14.826&#xD;&#xA;			c-7.153,0-13.14-5.092-14.525-11.842c-0.198-0.964-0.301-1.963-0.301-2.984V65.72V30.96c0-8.176,6.652-14.826,14.826-14.826&#xD;&#xA;			c8.176,0,14.826,6.651,14.826,14.826V65.72z M357.115,205.501h33.473v33.472h-33.473V205.501z M376.018,495.869&#xD;&#xA;			c-63.479,0-115.688-49.171-120.543-111.425c-0.011-0.143-0.022-0.285-0.032-0.429c-0.062-0.831-0.113-1.663-0.159-2.499&#xD;&#xA;			c-0.019-0.361-0.034-0.722-0.05-1.083c-0.03-0.674-0.058-1.35-0.077-2.027c-0.016-0.593-0.023-1.187-0.031-1.782&#xD;&#xA;			c-0.007-0.485-0.017-0.969-0.018-1.456c-0.001-1.108,0.009-2.217,0.037-3.33c0.026-1.023,0.065-2.042,0.117-3.059&#xD;&#xA;			c0.008-0.155,0.02-0.307,0.028-0.461c0.046-0.855,0.098-1.708,0.163-2.557c0.018-0.243,0.042-0.485,0.062-0.727&#xD;&#xA;			c0.062-0.757,0.127-1.515,0.202-2.268c0.029-0.289,0.064-0.578,0.095-0.867c0.076-0.703,0.154-1.406,0.241-2.106&#xD;&#xA;			c0.04-0.32,0.086-0.64,0.13-0.959c0.088-0.663,0.179-1.326,0.278-1.985c0.053-0.35,0.111-0.699,0.167-1.048&#xD;&#xA;			c0.099-0.624,0.201-1.248,0.31-1.868c0.066-0.378,0.139-0.755,0.208-1.132c0.108-0.586,0.22-1.171,0.338-1.755&#xD;&#xA;			c0.082-0.406,0.169-0.811,0.254-1.215c0.116-0.546,0.234-1.093,0.357-1.636c0.099-0.438,0.203-0.876,0.307-1.313&#xD;&#xA;			c0.12-0.502,0.241-1.003,0.368-1.503c0.12-0.475,0.244-0.949,0.37-1.423c0.12-0.451,0.241-0.9,0.366-1.349&#xD;&#xA;			c0.146-0.521,0.294-1.042,0.446-1.561c0.114-0.387,0.228-0.773,0.346-1.158c0.177-0.581,0.357-1.159,0.542-1.737&#xD;&#xA;			c0.098-0.308,0.199-0.616,0.3-0.923c0.216-0.654,0.436-1.307,0.663-1.957c0.074-0.215,0.151-0.429,0.227-0.643&#xD;&#xA;			c0.263-0.741,0.532-1.48,0.81-2.215c0.04-0.106,0.081-0.213,0.122-0.319c6.114-16.039,15.68-30.744,28.284-43.161&#xD;&#xA;			c18.267-17.996,41.246-29.547,66.014-33.43c0.007-0.001,0.014-0.002,0.022-0.004c0.749-0.118,1.503-0.222,2.255-0.326&#xD;&#xA;			c0.242-0.033,0.483-0.07,0.726-0.102c0.627-0.082,1.256-0.154,1.884-0.226c0.371-0.043,0.74-0.088,1.113-0.128&#xD;&#xA;			c0.554-0.058,1.108-0.107,1.662-0.159c0.451-0.041,0.901-0.084,1.353-0.121c0.509-0.041,1.02-0.074,1.53-0.108&#xD;&#xA;			c0.496-0.033,0.991-0.067,1.49-0.094c0.489-0.027,0.98-0.048,1.471-0.069c0.517-0.022,1.035-0.043,1.554-0.059&#xD;&#xA;			c0.487-0.015,0.974-0.024,1.462-0.033c0.495-0.009,0.991-0.016,1.488-0.019c0.645-0.004,1.29-0.001,1.934,0.005&#xD;&#xA;			c0.416,0.004,0.833,0.008,1.248,0.016c0.723,0.014,1.444,0.038,2.166,0.065c0.326,0.012,0.653,0.022,0.979,0.037&#xD;&#xA;			c0.861,0.04,1.72,0.089,2.578,0.148c0.185,0.012,0.37,0.022,0.553,0.035c7.615,0.548,15.109,1.809,22.391,3.746&#xD;&#xA;			c0.023,0.006,0.046,0.013,0.069,0.019c0.97,0.259,1.937,0.531,2.899,0.814c0.153,0.045,0.305,0.09,0.457,0.137&#xD;&#xA;			c0.815,0.242,1.625,0.494,2.434,0.754c0.274,0.088,0.547,0.177,0.821,0.267c0.661,0.217,1.319,0.442,1.976,0.671&#xD;&#xA;			c0.399,0.14,0.799,0.278,1.196,0.422c0.488,0.176,0.973,0.358,1.46,0.539c0.549,0.207,1.099,0.412,1.644,0.627&#xD;&#xA;			c0.26,0.102,0.518,0.208,0.778,0.311c44.54,17.847,76.082,61.454,76.082,112.293C496.933,441.627,442.691,495.869,376.018,495.869&#xD;&#xA;			z"/>
	</g>
</g>
<g>
	<g>
		<path fill="#2257A6" d="M131.288,190.433h-48.54c-4.161,0-7.534,3.372-7.534,7.534v48.539c0,4.162,3.373,7.534,7.534,7.534h48.54&#xD;&#xA;			c4.161,0,7.534-3.372,7.534-7.534v-48.539C138.822,193.805,135.449,190.433,131.288,190.433z M123.754,238.973H90.282v-33.472&#xD;&#xA;			h33.473V238.973z"/>
	</g>
</g>
<g>
	<g>
		<path fill="#2257A6" d="M220.232,190.433h-48.54c-4.161,0-7.534,3.372-7.534,7.534v48.539c0,4.162,3.373,7.534,7.534,7.534h48.54&#xD;&#xA;			c4.161,0,7.534-3.372,7.534-7.534v-48.539C227.765,193.805,224.392,190.433,220.232,190.433z M212.698,238.973h-33.473v-33.472&#xD;&#xA;			h33.473V238.973z"/>
	</g>
</g>
<g>
	<g>
		<path fill="#2257A6" d="M309.176,190.433h-48.54c-4.161,0-7.534,3.372-7.534,7.534v48.539c0,4.162,3.373,7.534,7.534,7.534h48.54&#xD;&#xA;			c4.161,0,7.534-3.372,7.534-7.534v-48.539C316.71,193.805,313.337,190.433,309.176,190.433z M301.643,238.973H268.17v-33.472&#xD;&#xA;			h33.473V238.973z"/>
	</g>
</g>
<g>
	<g>
		<path fill="#2257A6" d="M131.288,294.64h-48.54c-4.161,0-7.534,3.372-7.534,7.534v48.539c0,4.161,3.373,7.534,7.534,7.534h48.54&#xD;&#xA;			c4.161,0,7.534-3.373,7.534-7.534v-48.539C138.822,298.012,135.449,294.64,131.288,294.64z M123.754,343.179H90.282v-33.472&#xD;&#xA;			h33.473V343.179z"/>
	</g>
</g>
<g>
	<g>
		<path fill="#2257A6" d="M220.232,294.64h-48.54c-4.161,0-7.534,3.372-7.534,7.534v48.539c0,4.161,3.373,7.534,7.534,7.534h48.54&#xD;&#xA;			c4.161,0,7.534-3.373,7.534-7.534v-48.539C227.765,298.012,224.393,294.64,220.232,294.64z M212.698,343.179h-33.473v-33.472&#xD;&#xA;			h33.473V343.179z"/>
	</g>
</g>
<g>
	<g>
		<path fill="#2257A6" d="M337.462,139.731H15.327V73.253h39.537V89.87c0,16.483,13.41,29.894,29.894,29.894c16.484,0,29.894-13.411,29.894-29.894&#xD;&#xA;			V73.253h43.777c4.161,0,7.534-3.372,7.534-7.534c0-4.162-3.373-7.534-7.534-7.534h-43.777V30.96&#xD;&#xA;			c0-16.483-13.411-29.894-29.894-29.894c-16.483,0-29.894,13.411-29.894,29.894v27.226H7.793H7.534C3.373,58.186,0,61.558,0,65.72&#xD;&#xA;			v364.129c0,4.162,3.373,7.534,7.534,7.534h90.872c4.161,0,7.534-3.372,7.534-7.534c0-4.162-3.373-7.534-7.534-7.534H15.067&#xD;&#xA;			V154.798h322.394c4.161,0,7.534-3.372,7.534-7.534S341.622,139.731,337.462,139.731z M69.932,65.72V30.96&#xD;&#xA;			c0-8.176,6.651-14.826,14.826-14.826s14.826,6.651,14.826,14.826V65.72v24.15c0,8.176-6.652,14.826-14.826,14.826&#xD;&#xA;			S69.932,98.045,69.932,89.87V65.72z"/>
	</g>
</g>
<g>
	<g>
		<path fill="#F86F26" d="M422.137,345.795h-18.441v-18.441c0-8.138-6.621-14.759-14.759-14.759h-25.836c-8.138,0-14.759,6.622-14.759,14.759&#xD;&#xA;			v18.441H329.9c-8.138,0-14.759,6.622-14.759,14.759v25.836c0,8.138,6.621,14.759,14.759,14.759h18.442v18.441&#xD;&#xA;			c0,8.138,6.621,14.759,14.759,14.759h25.836c8.138,0,14.759-6.622,14.759-14.759v-18.441h18.441c8.138,0,14.76-6.622,14.76-14.759&#xD;&#xA;			v-25.836C436.897,352.417,430.277,345.795,422.137,345.795z M421.83,386.083h-25.668c-4.161,0-7.534,3.372-7.534,7.534v25.668&#xD;&#xA;			h-25.22v-25.668c0-4.162-3.373-7.534-7.534-7.534h-25.668v-25.22h25.668c4.161,0,7.534-3.372,7.534-7.534v-25.668h25.22v25.668&#xD;&#xA;			c0,4.162,3.373,7.534,7.534,7.534h25.668V386.083z"/>
	</g>
</g>
<g>
</g>
<g>
</g>
<g>
</g>
<g>
</g>
<g>
</g>
<g>
</g>
<g>
</g>
<g>
</g>
<g>
</g>
<g>
</g>
<g>
</g>
<g>
</g>
<g>
</g>
<g>
</g>
<g>
</g>
</svg>