<?xml version="1.0" encoding="utf-8"?>
<svg xmlns="http://www.w3.org/2000/svg" xmlns:xlink="http://www.w3.org/1999/xlink" version="1.1" width="512" height="512" x="0" y="0" viewBox="0 0 512 512" style="enable-background:new 0 0 512 512" class="">
  <g>
    <circle cx="141" cy="242.223" r="30.846" style="fill-rule:evenodd;clip-rule:evenodd;stroke-width:22;stroke-linecap:round;stroke-linejoin:round;stroke-miterlimit:2.6131;" transform="rotate(-76.714 141.017 242.237)" fill-rule="evenodd" clip-rule="evenodd" fill="none" stroke="#2257a6" stroke-width="22" stroke-linecap="round" stroke-linejoin="round" stroke-miterlimit="2.6131" data-original="#000000" class="" opacity="1"/>
    <path d="M83.5 330.569v-19.687a117.962 117.962 0 0 1-13.886-9.176c-20.032-15.371-35.12-37.133-41.991-62.773-3.724-13.937 4.555-28.254 18.492-31.978 13.937-3.724 28.254 4.555 31.978 18.492 3.819 14.253 12.152 26.308 23.192 34.78 11.075 8.498 24.917 13.442 39.714 13.442 31.757 0 57.5 25.743 57.5 57.5" style="fill-rule:evenodd;clip-rule:evenodd;stroke-width:22;stroke-linecap:round;stroke-linejoin:round;stroke-miterlimit:2.6131;" fill-rule="evenodd" clip-rule="evenodd" fill="none" stroke="#2257a6" stroke-width="22" stroke-linecap="round" stroke-linejoin="round" stroke-miterlimit="2.6131" data-original="#000000" class="" opacity="1"/>
    <circle cx="256" cy="242.223" r="30.846" style="fill-rule:evenodd;clip-rule:evenodd;stroke-width:22;stroke-linecap:round;stroke-linejoin:round;stroke-miterlimit:2.6131;" transform="rotate(-45.001 255.998 242.227)" fill-rule="evenodd" clip-rule="evenodd" fill="none" stroke="#2257a6" stroke-width="22" stroke-linecap="round" stroke-linejoin="round" stroke-miterlimit="2.6131" data-original="#000000" class="" opacity="1"/>
    <path d="M198.5 331.168c0-31.756 25.743-57.5 57.5-57.5s57.5 25.743 57.5 57.5" style="fill-rule:evenodd;clip-rule:evenodd;stroke-width:22;stroke-linecap:round;stroke-linejoin:round;stroke-miterlimit:2.6131;" fill-rule="evenodd" clip-rule="evenodd" fill="none" stroke="#2257a6" stroke-width="22" stroke-linecap="round" stroke-linejoin="round" stroke-miterlimit="2.6131" data-original="#000000" class="" opacity="1"/>
    <circle cx="371" cy="242.223" r="30.846" style="fill-rule:evenodd;clip-rule:evenodd;stroke-width:22;stroke-linecap:round;stroke-linejoin:round;stroke-miterlimit:2.6131;" transform="rotate(-22.5 370.983 242.214)" fill-rule="evenodd" clip-rule="evenodd" fill="none" stroke="#2257a6" stroke-width="22" stroke-linecap="round" stroke-linejoin="round" stroke-miterlimit="2.6131" data-original="#000000" class="" opacity="1"/>
    <path d="M428.5 330.569v-19.687a117.88 117.88 0 0 0 13.886-9.176c20.032-15.371 35.12-37.133 41.991-62.773 3.724-13.937-4.555-28.254-18.492-31.978-13.937-3.724-28.254 4.555-31.978 18.492-3.819 14.253-12.152 26.308-23.193 34.78-11.075 8.498-24.917 13.442-39.714 13.442-31.757 0-57.5 25.743-57.5 57.5" style="fill-rule:evenodd;clip-rule:evenodd;stroke-width:22;stroke-linecap:round;stroke-linejoin:round;stroke-miterlimit:2.6131;" fill-rule="evenodd" clip-rule="evenodd" fill="none" stroke="#2257a6" stroke-width="22" stroke-linecap="round" stroke-linejoin="round" stroke-miterlimit="2.6131" data-original="#000000" class="" opacity="1"/>
    <circle cx="83.5" cy="366.416" r="30.846" style="fill-rule:evenodd;clip-rule:evenodd;stroke-width:22;stroke-linecap:round;stroke-linejoin:round;stroke-miterlimit:2.6131;" transform="rotate(-80.008 83.503 366.428)" fill-rule="evenodd" clip-rule="evenodd" fill="none" stroke="#2257a6" stroke-width="22" stroke-linecap="round" stroke-linejoin="round" stroke-miterlimit="2.6131" data-original="#000000" class="" opacity="1"/>
    <path d="M26 455.361c0-31.756 25.743-57.5 57.5-57.5s57.5 25.744 57.5 57.5V501H26v-45.639z" style="fill-rule:evenodd;clip-rule:evenodd;stroke-width:22;stroke-linecap:round;stroke-linejoin:round;stroke-miterlimit:2.6131;" fill-rule="evenodd" clip-rule="evenodd" fill="none" stroke="#2257a6" stroke-width="22" stroke-linecap="round" stroke-linejoin="round" stroke-miterlimit="2.6131" data-original="#000000" class="" opacity="1"/>
    <circle cx="198.5" cy="366.416" r="30.846" style="fill-rule:evenodd;clip-rule:evenodd;stroke-width:22;stroke-linecap:round;stroke-linejoin:round;stroke-miterlimit:2.6131;" transform="rotate(-28.156 198.477 366.384)" fill-rule="evenodd" clip-rule="evenodd" fill="none" stroke="#2257a6" stroke-width="22" stroke-linecap="round" stroke-linejoin="round" stroke-miterlimit="2.6131" data-original="#000000" class="" opacity="1"/>
    <path d="M141 455.361c0-31.756 25.743-57.5 57.5-57.5s57.5 25.744 57.5 57.5V501H141v-45.639z" style="fill-rule:evenodd;clip-rule:evenodd;stroke-width:22;stroke-linecap:round;stroke-linejoin:round;stroke-miterlimit:2.6131;" fill-rule="evenodd" clip-rule="evenodd" fill="none" stroke="#2257a6" stroke-width="22" stroke-linecap="round" stroke-linejoin="round" stroke-miterlimit="2.6131" data-original="#000000" class="" opacity="1"/>
    <circle cx="313.5" cy="366.416" r="30.846" style="fill-rule:evenodd;clip-rule:evenodd;stroke-width:22;stroke-linecap:round;stroke-linejoin:round;stroke-miterlimit:2.6131;" transform="rotate(-83.736 313.505 366.426)" fill-rule="evenodd" clip-rule="evenodd" fill="none" stroke="#2257a6" stroke-width="22" stroke-linecap="round" stroke-linejoin="round" stroke-miterlimit="2.6131" data-original="#000000" class="" opacity="1"/>
    <path d="M256 455.361c0-31.756 25.743-57.5 57.5-57.5s57.5 25.744 57.5 57.5V501H256v-45.639z" style="fill-rule:evenodd;clip-rule:evenodd;stroke-width:22;stroke-linecap:round;stroke-linejoin:round;stroke-miterlimit:2.6131;" fill-rule="evenodd" clip-rule="evenodd" fill="none" stroke="#2257a6" stroke-width="22" stroke-linecap="round" stroke-linejoin="round" stroke-miterlimit="2.6131" data-original="#000000" class="" opacity="1"/>
    <circle cx="428.5" cy="366.416" r="30.846" style="fill-rule:evenodd;clip-rule:evenodd;stroke-width:22;stroke-linecap:round;stroke-linejoin:round;stroke-miterlimit:2.6131;" transform="rotate(-76.714 428.542 366.43)" fill-rule="evenodd" clip-rule="evenodd" fill="none" stroke="#2257a6" stroke-width="22" stroke-linecap="round" stroke-linejoin="round" stroke-miterlimit="2.6131" data-original="#000000" class="" opacity="1"/>
    <path d="M371 455.361c0-31.756 25.743-57.5 57.5-57.5s57.5 25.744 57.5 57.5V501H371v-45.639z" style="fill-rule:evenodd;clip-rule:evenodd;stroke-width:22;stroke-linecap:round;stroke-linejoin:round;stroke-miterlimit:2.6131;" fill-rule="evenodd" clip-rule="evenodd" fill="none" stroke="#2257a6" stroke-width="22" stroke-linecap="round" stroke-linejoin="round" stroke-miterlimit="2.6131" data-original="#000000" class="" opacity="1"/>
    <path d="M116 11h280c11 0 20 9 20 20v110c0 11-9 20-20 20h-58.458L313.5 185.042 289.458 161h-66.917L198.5 185.042 174.458 161H116c-11 0-20-9-20-20V31c0-11 9-20 20-20zM222.541 63.5h66.917M222.541 108.5h66.917" style="fill-rule:evenodd;clip-rule:evenodd;stroke-width:22;stroke-linecap:round;stroke-linejoin:round;stroke-miterlimit:2.6131;" fill-rule="evenodd" clip-rule="evenodd" fill="none" stroke="#f86f26" stroke-width="22" stroke-linecap="round" stroke-linejoin="round" stroke-miterlimit="2.6131" data-original="#33cccc" opacity="1" class=""/>
  </g>
</svg>