<?xml version="1.0" encoding="utf-8"?>
<svg xmlns="http://www.w3.org/2000/svg" xmlns:xlink="http://www.w3.org/1999/xlink" version="1.1" width="512" height="512" x="0" y="0" viewBox="0 0 512 512" style="enable-background:new 0 0 512 512" class="">
  <g>
    <path d="M349 294.345V75H55v382h251.005" style="stroke-width:22;stroke-linejoin:round;stroke-miterlimit:10;" fill="none" stroke="#2257a6" stroke-width="22" stroke-linejoin="round" stroke-miterlimit="10" data-original="#000000" opacity="1" class=""/>
    <path d="M393 324.158c38.02 0 68.842 30.821 68.842 68.842 0 38.02-30.821 68.842-68.841 68.842-38.02 0-68.841-30.821-68.841-68.842-.002-38.02 30.82-68.842 68.84-68.842z" style="stroke-width:22;stroke-linejoin:round;stroke-miterlimit:10;" fill="none" stroke="#f86f26" stroke-width="22" stroke-linejoin="round" stroke-miterlimit="10" data-original="#33cccc" opacity="1"/>
    <path d="M393 365.647c15.107 0 27.353 12.246 27.353 27.353 0 15.107-12.246 27.353-27.353 27.353-15.107 0-27.353-12.246-27.353-27.353 0-15.107 12.246-27.353 27.353-27.353z" style="stroke-width:22;stroke-linejoin:round;stroke-miterlimit:10;" fill="none" stroke="#f86f26" stroke-width="22" stroke-linejoin="round" stroke-miterlimit="10" data-original="#33cccc" opacity="1"/>
    <path d="M393 285V31h-99.309M111 31H11v470h379.258" style="stroke-width:22;stroke-linejoin:round;stroke-miterlimit:10;" fill="none" stroke="#2257a6" stroke-width="22" stroke-linejoin="round" stroke-miterlimit="10" data-original="#000000" opacity="1" class=""/>
    <path d="M111 11h182v64H111z" style="stroke-width:22;stroke-linecap:round;stroke-linejoin:round;stroke-miterlimit:10;" fill="none" stroke="#2257a6" stroke-width="22" stroke-linecap="round" stroke-linejoin="round" stroke-miterlimit="10" data-original="#000000" opacity="1" class=""/>
    <path d="M452.213 302.674C435.209 291.504 414.865 285 393 285c-59.647 0-108 48.353-108 108s48.353 108 108 108 108-48.353 108-108c0-21.865-6.504-42.209-17.674-59.213" style="stroke-width:22;stroke-linejoin:round;stroke-miterlimit:10;" fill="none" stroke="#f86f26" stroke-width="22" stroke-linejoin="round" stroke-miterlimit="10" data-original="#33cccc" opacity="1"/>
    <path d="m405.132 380.868 37.598-37.598" style="stroke-width:22;stroke-linecap:round;stroke-linejoin:round;stroke-miterlimit:10;" fill="none" stroke="#2257a6" stroke-width="22" stroke-linecap="round" stroke-linejoin="round" stroke-miterlimit="10" data-original="#000000" opacity="1" class=""/>
    <circle cx="127" cy="378" r="28" style="stroke-width:22;stroke-linecap:round;stroke-linejoin:round;stroke-miterlimit:10;" fill="none" stroke="#f86f26" stroke-width="22" stroke-linecap="round" stroke-linejoin="round" stroke-miterlimit="10" data-original="#33cccc" opacity="1"/>
    <circle cx="127" cy="266" r="28" style="stroke-width:22;stroke-linecap:round;stroke-linejoin:round;stroke-miterlimit:10;" fill="none" stroke="#f86f26" stroke-width="22" stroke-linecap="round" stroke-linejoin="round" stroke-miterlimit="10" data-original="#33cccc" opacity="1"/>
    <path d="m101.811 161.569 17.407 17.407 35.629-35.63" style="stroke-width:22;stroke-linecap:round;stroke-linejoin:round;stroke-miterlimit:10;" fill="none" stroke="#f86f26" stroke-width="22" stroke-linecap="round" stroke-linejoin="round" stroke-miterlimit="10" data-original="#33cccc" opacity="1"/>
    <path d="M199 355h45.23M199 401h22.615M199 243h106.329M199 289h42.217M199 131h106.329M199 177h42.217" style="stroke-width:22;stroke-linecap:round;stroke-linejoin:round;stroke-miterlimit:10;" fill="none" stroke="#2257a6" stroke-width="22" stroke-linecap="round" stroke-linejoin="round" stroke-miterlimit="10" data-original="#000000" opacity="1" class=""/>
    <path d="M442.73 343.27v-31.113L469.887 285 501 316.113l-27.157 27.157H442.73z" style="stroke-width:22;stroke-linejoin:round;stroke-miterlimit:10;" fill="none" stroke="#2257a6" stroke-width="22" stroke-linejoin="round" stroke-miterlimit="10" data-original="#000000" opacity="1" class=""/>
  </g>
</svg>