<?xml version="1.0" encoding="utf-8"?>
<svg xmlns="http://www.w3.org/2000/svg" xmlns:cc="http://creativecommons.org/ns#" xmlns:dc="http://purl.org/dc/elements/1.1/" xmlns:rdf="http://www.w3.org/1999/02/22-rdf-syntax-ns#" xmlns:xlink="http://www.w3.org/1999/xlink" version="1.1" id="Layer_1" fill="#000" x="0px" y="0px" viewBox="0 0 1283.8 364" style="enable-background:new 0 0 1283.8 364;">
<style type="text/css">
	.st0{fill:#00006C;}
</style>
<path d="M175.8,2v0.4l0.7,0c0.6,0,1.1,0.2,1.5,0.5c0.2,0.2,0.3,0.9,0.3,2L178,15.8c0,0.9-0.1,1.6-0.3,1.8c-0.3,0.4-0.9,0.6-1.6,0.6  l-0.6,0v0.5l7.5,0.1v-0.5h-0.7c-0.6,0-1.1-0.2-1.5-0.5c-0.2-0.3-0.3-0.9-0.3-2l0.1-4.9c0.1,0,0.2,0,0.4,0h0.3h1l5.9,7.9l4.7,0v-0.4  c-0.9-0.1-1.7-0.3-2.4-0.7c-0.6-0.4-1.3-1.1-2.1-2.3l-3.6-4.8c1.5-0.3,2.6-0.8,3.3-1.5c0.7-0.8,1.1-1.6,1.1-2.7  c0-0.9-0.2-1.8-0.9-2.4c-0.6-0.7-1.4-1.2-2.3-1.5c-0.9-0.3-2.3-0.4-4.1-0.5L175.8,2L175.8,2z M171.2,2.3l-13.6,1.1v0.5l0.6,0  c0.7-0.1,1.3,0,1.6,0.3c0.2,0.2,0.4,0.8,0.5,1.9l1,10.8c0,0.8,0,1.3,0,1.6c-0.1,0.2-0.2,0.5-0.5,0.6c-0.4,0.2-0.8,0.3-1.2,0.3  l-0.6,0.1l0,0.4l13.6-1.1l1.1-4.3l-0.5,0c-0.5,1.1-1,1.9-1.5,2.4c-0.4,0.4-0.8,0.7-1.2,0.9c-0.4,0.2-1.1,0.3-2.1,0.4l-3,0.2  c-0.5,0-0.8,0-1,0c-0.2-0.1-0.3-0.2-0.4-0.3c-0.1-0.1-0.1-0.6-0.2-1.3l-0.5-5.5l3.9-0.3c0.7,0,1.3,0,1.7,0.1  c0.4,0.1,0.6,0.3,0.8,0.6c0.1,0.2,0.3,0.7,0.5,1.5l0.5,0l-0.5-5.7l-0.5,0c0,0.9-0.1,1.6-0.6,2c-0.3,0.3-0.9,0.5-2,0.6l-3.9,0.3  l-0.6-6.6l4.8-0.4c0.9,0,1.5,0,1.9,0c0.4,0.1,0.8,0.4,1,0.7c0.3,0.3,0.5,0.9,0.8,1.8l0.5,0L171.2,2.3L171.2,2.3z M193.2,2.3l0,0.4  c0.5,0.1,0.9,0.2,1.2,0.4c0.3,0.2,0.5,0.4,0.7,0.7c0.1,0.2,0.3,0.6,0.5,1.4l4.7,15l0.5,0.1l8-13.4c0.4-0.8,0.9-1.4,1.5-1.7  c0.3-0.2,0.8-0.3,1.5-0.4l0-0.4l-5.4-0.6l0,0.4c0.1,0,0.1,0.1,0.2,0.1c0.5,0.1,1,0.3,1.2,0.6c0.2,0.2,0.3,0.5,0.3,0.7  c0,0.3-0.3,1-0.9,1.9l-5.4,9.1l-3.2-10.2c-0.3-0.9-0.4-1.6-0.3-2c0-0.3,0.2-0.5,0.4-0.6c0.3-0.2,0.8-0.2,1.6-0.2l0-0.4L193.2,2.3  L193.2,2.3z M182.8,3c1.1,0,2,0.4,2.7,1c0.6,0.7,1,1.5,1,2.6c0,1-0.5,1.9-1.3,2.6c-0.9,0.7-2.2,1-3.8,1c0,0-0.1,0-0.2,0h0h0h0h0h0h0  h0h0h0l0.1-6.9C181.6,3.1,182.3,3,182.8,3L182.8,3z M152.4,3.9l-0.5,0c0,0.4-0.1,0.7-0.1,0.8c-0.1,0.1-0.3,0.2-0.5,0.3  c-0.2,0-0.6,0-1.1-0.1c-1.1-0.2-2.2-0.3-3.1-0.1c-1.5,0.3-2.6,0.9-3.4,2c-0.8,1-1,2.1-0.8,3.3c0.1,0.7,0.4,1.3,0.9,1.8  c0.4,0.5,1,0.9,1.8,1.3c0.7,0.3,1.9,0.8,3.6,1.3c1.7,0.5,2.6,0.8,3,1c0.6,0.2,1,0.6,1.3,0.9c0.3,0.4,0.5,0.8,0.6,1.2  c0.1,0.7,0,1.4-0.5,2.1c-0.5,0.7-1.3,1.1-2.4,1.3c-0.9,0.1-1.8,0.1-2.6-0.1c-0.9-0.2-1.5-0.6-2-1.1c-0.5-0.5-1-1.3-1.5-2.5l-0.5,0.1  l1.2,5.6l0.5-0.1c0-0.4,0-0.6,0.1-0.8c0.1-0.1,0.2-0.2,0.4-0.3c0.2,0,0.8,0,1.7,0.1c0.9,0.1,1.5,0.2,1.8,0.1c0.5,0,0.9,0,1.5-0.1  c1.6-0.3,2.8-1,3.7-2.1c0.8-1.1,1.1-2.3,0.9-3.5c-0.1-0.6-0.4-1.3-0.9-1.8c-0.4-0.6-1-1-1.7-1.3c-0.7-0.3-1.9-0.8-3.7-1.3  c-2.2-0.6-3.6-1.2-4.3-1.7c-0.5-0.3-0.7-0.8-0.8-1.3c-0.1-0.6,0-1.3,0.5-1.9c0.5-0.6,1.2-1,2.1-1.2c0.8-0.1,1.6-0.1,2.4,0.1  c0.8,0.2,1.5,0.7,2.1,1.2c0.5,0.6,1,1.4,1.3,2.4l0.5-0.1L152.4,3.9L152.4,3.9z M214.5,5.1l-0.1,0.4l0.6,0.1c0.4,0.1,0.8,0.2,1.1,0.5  c0.2,0.2,0.3,0.4,0.4,0.6c0,0.3,0,0.8-0.2,1.7l-2.4,10.6c-0.2,1-0.4,1.6-0.7,1.8c-0.4,0.3-1,0.4-1.7,0.2l-0.6-0.1l-0.1,0.4l7.3,1.5  l0.1-0.5l-0.6-0.1c-0.4-0.1-0.8-0.3-1.1-0.5c-0.2-0.2-0.4-0.4-0.4-0.6c0-0.2,0-0.8,0.2-1.6L218.8,9c0.2-0.9,0.4-1.6,0.7-1.8  c0.4-0.3,0.9-0.4,1.7-0.2l0.6,0.1l0.1-0.4L214.5,5.1L214.5,5.1z M130.5,8.9l-5.9,2l0.2,0.4l0.5-0.2c0.7-0.2,1.2-0.2,1.6,0  c0.3,0.1,0.7,0.7,1.1,1.7l3.4,9l-14.6-8.3l-4.6,1.5l0.1,0.4c0.5-0.2,0.9-0.2,1.1-0.3c0.5,0,1,0,1.3,0.1c0.3,0,0.8,0.3,1.5,0.7  l4.1,10.9c0.3,0.9,0.4,1.5,0.4,1.8c-0.1,0.5-0.6,0.9-1.3,1.1l-0.6,0.2l0.2,0.4l5.8-2l-0.1-0.4l-0.6,0.2c-0.6,0.2-1.2,0.2-1.6,0  c-0.3-0.1-0.6-0.7-1-1.7l-3.7-9.6l15.8,9l0.4-0.1l-5-13.3c-0.3-0.9-0.5-1.5-0.4-1.8c0.2-0.5,0.6-0.8,1.3-1.1l0.6-0.2L130.5,8.9  L130.5,8.9z M231.6,9c-0.8,0-1.6,0.1-2.4,0.3c-1.6,0.3-2.9,1.1-4.1,2.2c-1.2,1.1-2.1,2.4-2.5,4.1c-0.6,2-0.6,3.9,0,5.7  c0.9,2.4,2.7,4,5.6,4.8c1.5,0.4,3,0.5,4.3,0.1c1.4-0.3,2.7-1.1,4-2.3l-0.3-0.3c-1.4,1-2.6,1.6-3.6,1.8c-1,0.2-2,0.2-3.1-0.1  c-1.3-0.3-2.3-1-3.1-1.8c-0.8-0.8-1.3-1.9-1.4-3.1c-0.1-1.2,0-2.5,0.4-4c0.6-1.7,1.3-3.1,2.2-4.2c0.9-1,1.9-1.7,3-2  c1.1-0.3,2.2-0.2,3.3,0c1.3,0.4,2.4,1.1,3.1,2.1c0.7,1,1.1,2.4,1.1,4.1l0.4,0.1l1.4-5.5l-0.5-0.1c-0.2,0.3-0.4,0.6-0.7,0.7  c-0.2,0.1-0.4,0.1-0.6,0.1c-0.2,0-0.4-0.2-0.7-0.5c-1-0.9-2.1-1.5-3.3-1.9C233.1,9.1,232.4,9,231.6,9L231.6,9z M243.7,12.7l-0.2,0.4  l0.6,0.2c0.7,0.3,1.1,0.6,1.2,1c0.1,0.3,0,1-0.5,1.9l-4.5,10c-0.4,0.7-0.6,1.2-0.8,1.4c-0.2,0.2-0.4,0.3-0.7,0.3  c-0.4,0-0.8,0-1.2-0.1l-0.6-0.3l-0.2,0.4l12.6,5l3.1-3.3l-0.5-0.2c-1,0.7-1.8,1.2-2.5,1.5c-0.5,0.2-1,0.2-1.5,0.2  c-0.4,0-1.2-0.2-2.1-0.6l-2.8-1.1c-0.4-0.2-0.7-0.3-0.8-0.5c-0.1-0.2-0.2-0.3-0.2-0.5c0-0.2,0.1-0.6,0.5-1.3l2.3-5.1l3.6,1.4  c0.6,0.3,1.1,0.6,1.4,0.8c0.3,0.3,0.4,0.6,0.4,0.9c0,0.2-0.1,0.8-0.3,1.6l0.4,0.1l2.4-5.3l-0.4-0.2c-0.4,0.8-1,1.4-1.5,1.5  c-0.4,0.1-1.1,0-2.1-0.3l-3.6-1.4l2.7-6.1l4.5,1.8c0.8,0.3,1.3,0.6,1.6,0.9c0.3,0.3,0.5,0.6,0.6,1c0,0.4,0,1-0.2,1.9l0.5,0.2  l1.3-3.5L243.7,12.7L243.7,12.7z M101.8,19.3l-0.3,0.1l0.8,14.9c0.1,1.3,0,2.3-0.1,2.8c-0.1,0.2-0.5,0.6-1.1,1l0.2,0.4l5-2.4  l-0.2-0.4c-0.8,0.3-1.3,0.4-1.7,0.3c-0.3,0-0.5-0.2-0.6-0.4c-0.1-0.3-0.2-0.8-0.3-1.5l-0.2-2.8l6.2-2.9l2.1,1.7  c0.7,0.5,1.1,1,1.3,1.3c0.1,0.2,0.1,0.5,0,0.8c-0.1,0.2-0.5,0.5-1.1,0.9l0.2,0.4l6.2-3l-0.2-0.4c-0.7,0.3-1.3,0.3-1.8,0.2  c-0.5-0.1-1.3-0.6-2.3-1.4L101.8,19.3L101.8,19.3z M263.7,21.3c-0.5,0-1,0-1.5,0.2c-1.3,0.3-2.3,1-2.9,2.1c-0.3,0.6-0.5,1.2-0.5,1.9  c0,0.6,0.1,1.3,0.5,2.1c0.3,0.7,1,1.7,1.9,3.1c0.9,1.4,1.5,2.3,1.7,2.6c0.2,0.5,0.4,1.1,0.4,1.5c0,0.5-0.1,0.9-0.3,1.3  c-0.4,0.6-1,1.1-1.9,1.3c-0.8,0.2-1.7,0-2.6-0.4c-0.8-0.4-1.5-1-2-1.7c-0.5-0.7-0.7-1.4-0.8-2.1c0-0.7,0.1-1.6,0.5-2.8l-0.4-0.2  l-2.9,5l0.4,0.2c0.3-0.3,0.4-0.5,0.6-0.5c0.2-0.1,0.3,0,0.5,0c0.2,0.1,0.6,0.4,1.2,1c0.6,0.6,1,1,1.3,1.2c0.3,0.2,0.8,0.5,1.2,0.7  c1.4,0.7,2.8,0.9,4.2,0.6c1.4-0.3,2.4-1.1,3-2.2c0.3-0.5,0.5-1.2,0.5-1.9c0-0.6-0.1-1.3-0.4-2c-0.3-0.6-1-1.7-2.1-3.2  c-1.3-1.8-2-3.1-2.2-3.9c-0.1-0.5,0-1,0.2-1.5c0.3-0.6,0.9-1,1.7-1.2c0.8-0.2,1.6-0.1,2.4,0.3c0.7,0.4,1.3,0.9,1.8,1.6  c0.5,0.7,0.7,1.4,0.8,2.2c0,0.7-0.2,1.7-0.6,2.7l0.4,0.2l2.9-5.1l-0.4-0.2c-0.2,0.3-0.5,0.4-0.7,0.5c-0.2,0-0.4,0-0.6-0.1  c-0.2,0-0.4-0.3-0.7-0.7c-0.7-0.9-1.5-1.5-2.4-2C265.3,21.6,264.5,21.4,263.7,21.3L263.7,21.3z M102.9,23.1l5.9,4.8l-5.5,2.5  L102.9,23.1L102.9,23.1z M90.6,25.1l-4.1,2.6L89,41.8l-13-7.4l-4.2,2.7l0.3,0.4c0.6-0.4,1.1-0.6,1.4-0.6c0.4,0,0.7,0,0.9,0.1  c0.3,0.2,0.7,0.6,1.2,1.2l6.5,9c0.5,0.8,0.8,1.3,0.8,1.6c0,0.5-0.3,1-0.9,1.4l-0.5,0.3l0.3,0.4l5.1-3.3l-0.3-0.3l-0.5,0.3  C85.6,48,85,48.1,84.5,48c-0.3-0.1-0.8-0.6-1.4-1.4l-6.7-9.2l14,8l0.3-0.2l-2.7-15.2l6.7,9.2c0.5,0.8,0.8,1.3,0.8,1.6  c0,0.5-0.3,1-0.9,1.4l-0.5,0.3l0.3,0.4l6.2-4l-0.2-0.3l-0.5,0.3c-0.5,0.4-1.1,0.5-1.6,0.4c-0.3,0-0.8-0.5-1.5-1.4l-6.5-9  c-0.5-0.8-0.8-1.3-0.8-1.7c0-0.5,0.3-1,1-1.4l0.5-0.3L90.6,25.1L90.6,25.1z M273.9,34.5c-1.5,0-2.6,1.1-2.6,2.4  c0,1.3,1.1,2.4,2.6,2.4h0h0.1h0.1l0.1,0h0.1l0.1,0h0.1l0.1,0l0.1,0l0.1,0l0.1,0l0.1,0l0.1-0.1l0.1,0l0.1-0.1l0.1,0l0-0.1l0.1-0.1  l0.1,0l0-0.1l0.1-0.1l0-0.1l0-0.1l0.1-0.1l0-0.1l0-0.1v-0.1l0-0.1l0-0.1v-0.1l0-0.1V37v-0.1C276.5,35.6,275.3,34.5,273.9,34.5  L273.9,34.5z M288.2,35.3l-0.3,0.3l0.5,0.4c0.5,0.4,0.8,0.8,0.8,1.2c0,0.4-0.3,1-1,1.8l-4.4,5c-1.4,1.6-2.2,2.7-2.4,3.5  c-0.4,1.1-0.4,2.2,0,3.2c0.3,1.1,1.3,2.2,2.8,3.3c1.4,1.1,2.7,1.7,3.9,1.7c1.3,0.1,2.3-0.1,3.2-0.6c0.9-0.5,1.9-1.4,3-2.7l4.5-5.2  c0.6-0.7,1.1-1.1,1.4-1.2c0.7-0.2,1.3-0.1,1.8,0.3l0.5,0.4l0.3-0.4l-4.8-3.7l-0.3,0.4v0l0.5,0.3c0.5,0.4,0.8,0.8,0.8,1.3  c0,0.3-0.3,0.9-1,1.7l-4.6,5.2c-1.2,1.4-2.2,2.3-2.9,2.6c-0.8,0.4-1.7,0.5-2.7,0.3c-1-0.2-2-0.6-2.9-1.3c-0.7-0.5-1.2-1.1-1.5-1.7  c-0.3-0.6-0.4-1.2-0.3-1.8c0-0.6,0.3-1.2,0.8-2c0.4-0.7,0.9-1.3,1.3-1.8l4.9-5.7c0.6-0.7,1.1-1.1,1.5-1.2c0.5-0.1,1.1,0,1.6,0.4  l0.5,0.4l0.3-0.3L288.2,35.3L288.2,35.3z M69.4,39.1L64.8,43l0.3,0.3l0.5-0.4c0.5-0.4,1-0.6,1.5-0.5c0.3,0,0.9,0.4,1.7,1.2l4.8,5  c1.2,1.3,2,2.4,2.3,3.1c0.2,0.8,0.2,1.6-0.1,2.5c-0.3,0.9-0.9,1.8-1.8,2.5c-0.6,0.6-1.3,0.9-2,1.1c-0.7,0.1-1.3,0.1-1.9,0  c-0.6-0.1-1.2-0.5-2-1c-0.7-0.5-1.2-1.1-1.7-1.6L61.3,50c-0.7-0.7-1-1.2-1.1-1.6c-0.1-0.5,0.1-1,0.7-1.5l0.5-0.4L61,46.2l-5.6,4.8  l0.3,0.3l0.5-0.4c0.5-0.4,1-0.6,1.4-0.6c0.4,0,1,0.5,1.8,1.2l4.6,4.8c1.4,1.5,2.5,2.4,3.3,2.8c1,0.5,2.2,0.7,3.4,0.6  c1.2-0.2,2.5-0.9,3.9-2.1c1.3-1.1,2.1-2.3,2.4-3.4c0.3-1.1,0.3-2.2-0.1-3c-0.4-0.9-1.2-2-2.4-3.2l-4.8-5c-0.7-0.7-1-1.2-1.1-1.5  c-0.1-0.6,0.1-1.2,0.6-1.6l0.5-0.4L69.4,39.1L69.4,39.1z M306,50.6c-1.4,0-2.4,0.4-3.4,1.2c-0.5,0.5-0.9,1.1-1.1,1.7  c-0.2,0.6-0.2,1.3-0.1,2.1c0.1,0.8,0.4,2,0.9,3.5c0.5,1.6,0.8,2.5,0.8,2.9c0,0.6,0,1.1-0.1,1.6c-0.1,0.4-0.4,0.8-0.7,1.1  c-0.5,0.5-1.3,0.8-2.1,0.8c-0.9,0-1.7-0.4-2.4-1.1c-0.7-0.6-1.1-1.4-1.4-2.2c-0.2-0.8-0.3-1.6-0.1-2.2c0.1-0.7,0.6-1.5,1.3-2.5  l-0.3-0.3l-4.3,4.1l0.3,0.3c0.3-0.2,0.6-0.3,0.8-0.3c0.2,0,0.3,0,0.5,0.2c0.1,0.1,0.4,0.6,0.9,1.3c0.4,0.8,0.7,1.3,0.8,1.5  c0.2,0.3,0.6,0.7,0.9,1c1.2,1.1,2.4,1.7,3.9,1.7c1.4,0,2.6-0.4,3.6-1.3c0.5-0.5,0.9-1,1.1-1.7c0.2-0.6,0.3-1.3,0.2-2.1  c-0.1-0.7-0.4-1.9-1-3.6c-0.6-2.1-1-3.5-0.9-4.3c0-0.5,0.2-1,0.6-1.4c0.5-0.4,1.2-0.7,2-0.6c0.8,0,1.6,0.3,2.2,0.9  c0.6,0.5,1,1.2,1.2,2c0.2,0.8,0.2,1.5,0,2.3c-0.2,0.7-0.6,1.6-1.4,2.4l0.3,0.3l4.4-4.1l-0.4-0.3c-0.3,0.2-0.6,0.3-0.8,0.3  c-0.2,0-0.4-0.1-0.5-0.2c-0.1-0.1-0.3-0.4-0.5-0.9c-0.4-1-1-1.8-1.6-2.4C308.5,51.2,307.3,50.6,306,50.6L306,50.6z M53.4,53l-5,5.3  l0.4,0.3l0.4-0.4c0.3-0.3,0.6-0.5,1-0.6c0.3-0.1,0.5-0.1,0.8,0c0.3,0.1,0.7,0.4,1.4,1l3.9,3.2l-5.4,5.8v0L47,64.3  c-0.6-0.5-1-0.9-1.2-1.2c-0.1-0.2-0.2-0.5-0.1-0.8c0.1-0.4,0.3-0.7,0.5-1l0.4-0.4l-0.4-0.3l-4.9,5.3l0.3,0.3l0.4-0.4  c0.2-0.2,0.6-0.5,1-0.6c0.3-0.1,0.5-0.1,0.8,0c0.3,0.1,0.8,0.4,1.4,1l8.7,7.2c0.8,0.6,1.2,1.1,1.3,1.4c0.1,0.5-0.1,1-0.6,1.6  l-0.4,0.4l0.3,0.2l5-5.3l-0.4-0.3l-0.4,0.4c-0.3,0.3-0.6,0.5-1,0.6c-0.3,0.1-0.5,0.1-0.8,0c-0.2-0.1-0.8-0.4-1.4-1L51.6,68l5.4-5.8  l4.1,3.4c0.8,0.6,1.2,1.1,1.3,1.4c0,0.5-0.1,1-0.6,1.5L61.4,69l0.3,0.3l5-5.3l-0.4-0.3L66,64.1c-0.3,0.3-0.6,0.5-1,0.6  c-0.3,0.1-0.5,0.1-0.8,0c-0.3-0.1-0.7-0.4-1.4-1l-8.7-7.2c-0.6-0.5-1.1-0.9-1.2-1.1c-0.1-0.2-0.2-0.5-0.1-0.8c0-0.4,0.2-0.7,0.5-1  l0.4-0.4L53.4,53L53.4,53z M322.7,65.7l-15.3,4.1c-1.3,0.4-2.3,0.5-2.9,0.4c-0.3,0-0.7-0.2-1.3-0.7l-0.4,0.3l3.5,4.1l0.4-0.2  c-0.5-0.7-0.7-1.2-0.7-1.5c0-0.3,0.1-0.5,0.3-0.7c0.2-0.2,0.7-0.4,1.5-0.6l2.9-0.8l4.4,5v0l-1.3,2.3c-0.4,0.7-0.8,1.2-1.1,1.5  c-0.2,0.1-0.5,0.2-0.8,0.1c-0.3,0-0.7-0.3-1.2-0.8l-0.3,0.3l4.4,5.1l0.4-0.3c-0.4-0.5-0.6-1.1-0.6-1.6c0-0.5,0.3-1.3,0.9-2.4  l7.5-13.3L322.7,65.7L322.7,65.7z M319.1,67.7l-3.6,6.5l-3.9-4.4L319.1,67.7z M337.5,70.4L337.5,70.4  C337.5,70.4,337.5,70.4,337.5,70.4L337.5,70.4z M337.5,70.4L337.5,70.4l0,0.1l-0.1,0.1l-0.1,0.2l-0.1,0.3l-0.2,0.3l-0.2,0.4  l-0.2,0.4l-0.3,0.5l-0.3,0.5l-0.4,0.5l-0.4,0.6l-0.4,0.6l-0.5,0.7l-0.5,0.7l-0.5,0.7l-0.6,0.8l-0.6,0.8l-0.6,0.8l-0.7,0.8l-0.7,0.8  L329,82l-0.8,0.9l-0.8,0.9l-0.9,0.9l-0.9,0.9l-0.9,0.9l-1,0.9l-1,0.9l-1,0.9l-1.1,0.9l-1.1,0.9c-8.6,7-106.6,67.2-111.4,71  c-4.8,3.8-13.7,13.9-20.9,43.8c-5.8,24.1-9.6,15.1-28.8,14.3c-11.3-0.4-42.5-8.7-40.1,15.5c0,0,3.9-5.4,46.5,0.3  c16.8,2.3,30.5-3.2,34.5-15.8c4-12.8,9.7-34.6,18.4-46.1c4-5.3,82.6-53.6,104.2-66.5C329.8,103.2,355.2,87.8,337.5,70.4L337.5,70.4z   M39.5,78.3l-2.8,4.4l0.4,0.2c0.2-0.2,0.5-0.4,0.8-0.4c0.4,0,0.8,0,1.1,0.2c1.1,0.6,2,2,2.7,4.2c-2.1,0.1-4.2,0.2-6.4,0.1  c0.1-1.7,0-3-0.2-3.8c-0.2-0.9-0.8-1.5-1.6-2c-0.8-0.4-1.6-0.6-2.4-0.3c-0.9,0.2-1.6,0.7-2.1,1.6c-0.6,0.9-0.8,1.8-0.8,2.8  c0.1,1.3,0.8,2.3,2.1,3c0.4,0.3,1,0.5,1.6,0.7c0.5,0.1,1.3,0.3,2.3,0.4c-0.1,2.2,0,3.9,0.6,5c0.5,1.1,1.2,2,2.1,2.5  c0.9,0.5,1.9,0.6,3,0.3c1.1-0.3,2-1,2.7-2.2c0.5-0.8,0.8-1.7,1-2.5c0.1-0.9,0.1-2-0.2-3.3c1.3-0.2,2.3-0.6,3-1  c0.7-0.4,1.2-0.9,1.6-1.5c0.5-0.7,0.7-1.6,0.6-2.4c-0.1-0.8-0.6-1.7-1.5-2.6l-0.6,0.2c0.5,0.4,0.7,0.9,0.8,1.4s-0.1,1-0.4,1.5  c-0.3,0.5-0.8,0.9-1.4,1.2c-0.6,0.3-1.5,0.5-2.7,0.7c-0.5-1.4-1.1-2.7-1.9-4.1c-0.7-1.3-1.1-2.2-1.2-2.6c0-0.4,0.1-1,0.4-1.6  L39.5,78.3L39.5,78.3z M31.4,82c0.4,0,0.8,0.1,1.2,0.3c0.7,0.4,1.2,1,1.5,1.8l0,0.1l0,0.1v0.1l0,0.1l0,0.2V85l0,0.1v0.2v0.2l0,0.1  v0.2l0,0.2v0.2v0.2v0.2l0,0.2c-1.1-0.2-1.9-0.3-2.4-0.5c-0.5-0.1-1-0.3-1.3-0.5c-0.4-0.3-0.8-0.7-1-1.2c-0.2-0.6-0.1-1.2,0.2-1.8  c0.3-0.5,0.7-0.7,1.3-0.9C31.1,82,31.3,82,31.4,82L31.4,82z M42.1,89.3h0.2l0,0c0.1,1.1,0.2,1.9,0.1,2.4c0,0.5-0.2,1-0.5,1.4  c-0.5,0.8-1.3,1.3-2.2,1.4c-0.9,0.1-1.8,0-2.6-0.4c-0.7-0.4-1.3-1-1.6-1.8c-0.3-0.8-0.4-1.8-0.4-2.9c1.2,0.1,2.2,0.1,3.1,0.1h0.1  h0.2h0.2h0.2h0.2h0.1h0.1h0.1h0.1l0.1,0h0.1H40h0.1h0.1h0.1l0.1,0h0.1h0.1H41h0.2l0.1,0h0.1h0.2h0.1H42L42.1,89.3L42.1,89.3z   M355.5,95.9C355.5,95.9,355.5,96,355.5,95.9L355.5,95.9C355.5,96,355.5,96,355.5,95.9z M355.6,96l-0.4,0.7l-0.4,0.8l-0.4,0.8  l-0.4,0.9l-0.5,0.9l-0.2,0.4l-0.3,0.5l-0.3,0.5l-0.3,0.5l-0.3,0.5l-0.3,0.5l-0.3,0.5l-0.4,0.5l-0.4,0.5l-0.4,0.5l-0.5,0.5l-0.5,0.6  l-0.5,0.5l-0.5,0.5l-0.6,0.5l-0.6,0.6l-0.7,0.5l-0.7,0.6l-0.7,0.6l-0.7,0.6l-0.8,0.5l-0.8,0.6c-17.5,11.8-85.3,53.8-100.9,63.1  c-8.8,5.2-15.9,15.1-18,19.6c-2.4,4.9-6,17.2-7.6,38.3c-0.3,4.1-11,10.8-9.6,13.8c1.3,2.9,9.4,1.5,9.1,3.7c-0.3,2-2.7,4.9-2.7,6.9  c0,2.3,4.8,0.2,3.6,2.6c-2,4,1.2,4.9,2.4,7.9c1.2,3-0.4,6.4,0.7,9c2,4.4,8.9,5.2,20,5c11.2-0.2,16.2,7.5,13.8,14.4  c-3.2,9.1-10.6,8.9-22.2,16.7c-11.6,7.7-12.1,17.6-5.3,26c5.1,6.4,24.5,9.5,36.6-2.9c2.5-2.8-5.5,1-17.1-5.1c0,0-7.5-5.4-3.5-12.7  c4-7.3,10.4-10.5,17.6-14.7c7.1-4.2,16.5-6.5,16-15.5c-0.4-9-9.8-10.2-13.6-10.5c-3.8-0.2-9.7,0.1-14.9-0.1  c-7.9-0.4-10.3-4.2-10.8-19.3c-0.1-4.8-7-2.3-3.2-8.7c2-3.3-3.8-2-7.7-3.7c-3.3-1.5,3.9-8.5,8.9-15.2c1.6-2.1-0.9-4.8,0-14.7  c0.8-8.7,4.8-20,16.5-27.9c5.7-3.9,30.5-19.3,37.7-23.4c10.1-5.8,58.9-37.4,67.3-43.7C369.8,109.7,356.5,97.1,355.6,96L355.6,96z   M19.4,99.6l-2.8,6.6l0.5,0.2l0.2-0.5c0.1-0.3,0.4-0.7,0.7-0.9c0.2-0.2,0.5-0.2,0.7-0.2c0.3,0,0.9,0.1,1.7,0.5l4.7,1.8l-3.1,7.2v0  l-4.7-1.9c-0.8-0.3-1.3-0.5-1.5-0.7c-0.2-0.2-0.3-0.4-0.3-0.7c0-0.4,0-0.8,0.1-1.1l0.2-0.5l-0.4-0.2l-2.9,6.6l0.4,0.2l0.2-0.5  c0.2-0.4,0.4-0.7,0.7-0.9c0.2-0.2,0.5-0.3,0.7-0.3c0.3,0,0.9,0.2,1.7,0.5l10.6,4.1c1,0.4,1.6,0.7,1.7,1c0.3,0.4,0.3,1,0,1.6  l-0.2,0.5l0.5,0.1l2.8-6.6l-0.4-0.2l-0.2,0.6c-0.1,0.3-0.4,0.6-0.7,0.9c-0.2,0.2-0.5,0.3-0.7,0.3c-0.3,0-0.9-0.2-1.7-0.5l-5-1.9  l3.1-7.2l5,1.9c1,0.4,1.6,0.7,1.7,1c0.3,0.4,0.3,1,0,1.6l-0.2,0.5l0.4,0.2l2.9-6.6l-0.4-0.1l-0.3,0.5c-0.1,0.3-0.4,0.6-0.7,0.9  c-0.2,0.1-0.5,0.2-0.7,0.2c-0.3,0-0.9-0.1-1.7-0.5l-10.6-4.1c-0.8-0.3-1.3-0.6-1.5-0.7c-0.2-0.2-0.3-0.4-0.3-0.7  c-0.1-0.4,0-0.8,0.1-1.1l0.2-0.5L19.4,99.6L19.4,99.6z M11.5,118.5l-4,13.1l3.9,1.3l0.1-0.4c-0.7-0.3-1.3-0.6-1.7-1  c-0.4-0.4-0.5-0.8-0.6-1.3c0-0.3,0.1-0.9,0.3-1.6l0.6-2l13,3.6c0.9,0.2,1.5,0.5,1.8,0.8c0.3,0.4,0.4,0.9,0.2,1.6l-0.2,0.5l0.5,0.1  l2.1-6.8l-0.5-0.1l-0.1,0.5c-0.2,0.6-0.5,1.1-1,1.3c-0.3,0.1-1,0-2.1-0.2l-13-3.6l0.7-2.3c0.2-0.6,0.5-1.2,0.8-1.5  c0.3-0.3,0.8-0.5,1.4-0.7c0.3,0,0.9,0,1.6,0l0.1-0.4L11.5,118.5L11.5,118.5z M19.9,134.8l-0.2,0.3c1,0.6,1.7,1.2,2.1,1.7  c0.4,0.5,0.7,1,0.7,1.6c0.1,0.6,0,1.5-0.2,2.7l-0.3,1.2c-0.2,1.1-0.4,1.7-0.5,1.9c-0.1,0.2-0.3,0.3-0.5,0.4c-0.3,0-0.8,0-1.5-0.1  l-11-2.1c-1-0.2-1.6-0.4-1.9-0.6c-0.2-0.2-0.4-0.4-0.5-0.8c-0.1-0.4,0-1,0.1-1.9l-0.4-0.1l-1.6,7.4l0.4,0.1l0.1-0.6  c0.1-0.6,0.4-1,0.9-1.3c0.3-0.2,1-0.1,2.1,0l11.3,2.2c1,0.1,1.6,0.4,1.8,0.6c0.4,0.4,0.5,0.9,0.4,1.6l-0.1,0.6l0.5,0.1l2.7-12.6  L19.9,134.8L19.9,134.8z M342.8,145.6L342.8,145.6L342.8,145.6l-0.1,0.1l-0.1,0l-0.1,0.1l-0.1,0.1l-0.1,0.1l-0.3,0.2l-0.3,0.3  l-0.4,0.3l-0.4,0.4l-0.5,0.4l-0.5,0.4l-0.6,0.5l-0.6,0.5l-0.7,0.5l-0.7,0.6l-0.7,0.6l-0.8,0.6l-0.8,0.6l-0.8,0.7l-0.9,0.7l-0.8,0.7  l-1.8,1.4l-1.9,1.4l-1.8,1.4l-1.9,1.3l-0.9,0.6l-0.9,0.6l-0.9,0.6l-0.8,0.6c-9.6,6-52.9,29-62.5,37c-9.6,7.9-9.3,14.7-9.3,14.7  l-1.6,19.6c0,0-6,6.1-6.8,8.3c-0.8,2.3,4,2.6,7.6,4.5c3.6,1.9-0.7,3.6,0.8,5.3c2.8,3.2,5,0.6,3.1,6c-0.3,0.8,2.4,3.4,2.1,4.8  c-0.5,2.3-1.7,3.8,0.4,5.8c2.4,2.3,10.1,6.1,27.9,2.4c19.2-4,31.9,11,41.5,13.6c3.3,0.8,14.2,4.3,31.3-9.1c7.4-5.7-4.6-0.5-21.7-7.7  c-18.3-7.6-23.8-8.1-36-5.8c-10.5,2-18.3,3.7-22.4,2.4c-3.5-1.1-0.6-6.3-3.2-7.2c-5.3-1.8-1.7-4.3-4.8-6c-3.2-1.8-1.3-2.4-1.4-6  c0-2.4-2.7-1.8-6.6-3.9c-3-1.7,4.1-4.8,5.1-7.3c1.2-3.1-0.3-7.4,0.5-13.7c1.4-11.1,18-18.9,26.8-23.8c9.6-5.2,37.2-22,43.7-26.4  C350.8,159.6,342.8,145.6,342.8,145.6L342.8,145.6z M20.9,150.6c-0.1,0.7-0.3,1.2-0.7,1.5c-0.4,0.3-1.2,0.7-2.4,1.1l-15.3,4.6v0.4  l13.9,7.2c1.2,0.6,2.1,1.2,2.4,1.6c0.2,0.2,0.3,0.7,0.4,1.4l0.5,0l0.5-5.2l-0.5,0c-0.1,0.8-0.3,1.3-0.5,1.5  c-0.2,0.2-0.5,0.3-0.8,0.3c-0.3,0-0.8-0.2-1.5-0.5l-2.6-1.4l0.6-6.5l2.6-0.8c0.9-0.2,1.5-0.3,1.9-0.3c0.3,0,0.5,0.2,0.7,0.4  c0.2,0.2,0.2,0.7,0.2,1.4l0.5,0l0.6-6.6L20.9,150.6L20.9,150.6z M13.8,156.7l-0.5,5.7l-6.9-3.6L13.8,156.7L13.8,156.7z M15.2,169.2  v0.5c1.1,0.5,1.9,1,2.4,1.5c0.4,0.4,0.7,0.8,0.8,1.2c0.1,0.4,0.2,1.1,0.2,2.1l0,2.8c0,0.5,0,0.8-0.1,0.9c-0.1,0.2-0.2,0.3-0.4,0.4  c-0.1,0-0.6,0.1-1.4,0.1l-5.8,0v-3.7c0-0.7,0-1.2,0.2-1.6c0.2-0.3,0.4-0.5,0.7-0.7c0.2-0.1,0.8-0.3,1.6-0.4v-0.4l-6.1,0v0.5  c1,0,1.7,0.2,2.1,0.6c0.3,0.3,0.4,1,0.5,1.9v3.7l-7,0.1l0-4.6c0-0.9,0-1.4,0.1-1.8c0.2-0.4,0.4-0.7,0.8-0.9c0.3-0.2,1-0.4,2-0.6  l0-0.5L2,170.8l0.1,12.9h0.5v-0.6c0-0.7,0.1-1.2,0.5-1.5c0.2-0.2,0.9-0.3,2.1-0.3l11.6-0.1c0.8,0,1.4,0,1.7,0.1  c0.3,0.1,0.5,0.2,0.7,0.5c0.2,0.3,0.3,0.7,0.3,1.1v0.6h0.5l-0.1-12.9L15.2,169.2L15.2,169.2z M19.8,184.7l-0.5,0l0.1,0.5  c0,0.4,0,0.8-0.2,1.2c-0.1,0.2-0.2,0.4-0.5,0.5c-0.2,0.1-0.8,0.3-1.7,0.4l-11.4,1.2c-0.9,0.1-1.4,0.1-1.7,0c-0.3,0-0.5-0.2-0.7-0.4  c-0.2-0.3-0.4-0.7-0.4-1.1l-0.1-0.6l-0.5,0l0.9,7.1l0.5-0.1l-0.1-0.5c0-0.4,0-0.8,0.1-1.2c0.1-0.2,0.3-0.5,0.5-0.6  c0.3-0.1,0.9-0.2,1.8-0.3l5-0.5l1,7.6l-5.1,0.6c-0.8,0.1-1.4,0.1-1.7,0c-0.3-0.1-0.5-0.2-0.7-0.4c-0.2-0.3-0.4-0.7-0.4-1.1l0-0.6  l-0.5,0l0.9,7.1l0.5,0l-0.1-0.6c0-0.4,0-0.8,0.2-1.2c0.1-0.2,0.3-0.4,0.5-0.5c0.2-0.1,0.8-0.2,1.7-0.3l11.4-1.3c1-0.1,1.8-0.1,2,0.1  c0.5,0.2,0.7,0.7,0.8,1.4l0.1,0.6l0.5-0.1l-0.9-7.1l-0.5,0l0,0.6c0,0.4,0,0.8-0.1,1.2c-0.1,0.2-0.3,0.4-0.5,0.5  c-0.3,0.1-0.9,0.2-1.7,0.3l-5.4,0.6l-1-7.6l5.4-0.6c1-0.1,1.7-0.1,2,0c0.4,0.3,0.7,0.7,0.8,1.4l0,0.6l0.5,0L19.8,184.7L19.8,184.7z   M10.5,213.4l-3.7,1.1l3.4,12l0.4-0.1l-0.1-0.5c-0.1-0.4-0.1-0.8,0-1.2c0.1-0.3,0.2-0.5,0.4-0.6c0.2-0.1,0.8-0.3,1.7-0.5l11.1-2.8  c1-0.2,1.7-0.3,2-0.2c0.5,0.2,0.8,0.6,1,1.3l0.1,0.5l0.5-0.1l-2-6.9l-0.4,0.1l0.1,0.6c0.1,0.4,0.1,0.8,0,1.2  c-0.1,0.3-0.2,0.5-0.4,0.6c-0.2,0.1-0.8,0.3-1.7,0.5l-5.4,1.4l-0.8-2.9c-0.1-0.5-0.1-1,0-1.3c0-0.3,0.2-0.6,0.5-0.8  c0.3-0.2,0.7-0.4,1.4-0.6l-0.1-0.4l-5.8,1.4l0.1,0.5c1-0.1,1.7-0.1,2.1,0.1c0.4,0.2,0.7,0.7,0.9,1.4l0.8,2.9l-6.7,1.7l-1-3.5  c-0.2-0.8-0.3-1.5-0.2-2c0-0.4,0.2-0.8,0.5-1.2c0.3-0.4,0.8-0.8,1.6-1.2L10.5,213.4L10.5,213.4z M23,226.3c-1.2,0-2.4,0.2-3.7,0.7  c-2.4,0.9-4.2,2.4-5.2,4.4l-0.1,0.2l-0.1,0.2l-0.1,0.2l-0.1,0.2l0,0.2l0,0.2l-0.1,0.2l0,0.2l0,0.2l0,0.2l0,0.2l0,0.2v0.2l0,0.2v0.2  v0.1v0.2l0,0.2l0,0.2v0.2v0.2v0.2l0,0.2v0.2l0,0.2l0,0.2l0,0.1l0,0.2l0,0.2l0,0.2l0.1,0.2l0,0.2c0.8,2.1,2.2,3.5,4.3,4.5  c2.4,1.1,4.8,1.2,7.4,0.2c2.6-0.9,4.4-2.4,5.5-4.4c1-2,1.1-4.1,0.3-6.3c-0.8-2.1-2.4-3.6-4.7-4.6C25.4,226.5,24.2,226.3,23,226.3  L23,226.3z M25.1,228.6c0.7,0,1.4,0.1,2,0.3c1.6,0.5,2.7,1.5,3.3,3c0.5,1.4,0.4,2.6-0.4,3.9c-1,1.6-2.9,2.9-5.6,3.8  c-2.6,0.9-4.9,1.1-6.7,0.6l-0.1,0l-0.1,0l-0.1,0l-0.1,0l-0.1,0l-0.1-0.1l-0.1,0l-0.1,0l-0.1-0.1l-0.1,0l-0.1,0l-0.1-0.1l-0.1-0.1  l-0.1,0l-0.1-0.1l-0.1-0.1l0,0l-0.1-0.1l-0.1-0.1l-0.1-0.1l0-0.1l-0.1-0.1l-0.1-0.1l0-0.1l-0.1-0.1l0-0.1l0-0.1l-0.1-0.1l0-0.1  l0-0.1l0-0.1l0-0.1c-0.6-1.5-0.5-2.8,0.3-4.1c0.9-1.6,2.9-2.8,5.7-3.8C22.4,228.9,23.8,228.6,25.1,228.6L25.1,228.6z M107,238.4  c-10.2,0.1-17.4,4.6-15.9,13.6l0.1,0l0.1,0l0.1-0.1l0.2-0.1l0.2-0.1l0.3-0.1l0.3-0.1l0.3-0.1l0.4-0.2l0.4-0.1l0.5-0.1l0.5-0.1  l0.6-0.1l0.6-0.1l0.6-0.1l0.7-0.1l0.8,0l0.8,0h0.8l0.9,0l1,0l1,0.1l0.5,0.1l0.6,0.1l0.5,0l0.6,0.1l0.6,0.1l0.6,0.1l0.6,0.1l0.6,0.2  l0.6,0.1l0.7,0.2l0.6,0.2l0.7,0.2l0.7,0.2l0.7,0.2l0.7,0.2l0.7,0.3l0.8,0.2l0.8,0.3c16.8,6.8,61.2,26.8,72.9,35.5  c7.2,5.3,27.3,14.4,21.6,24.2c-5.6,9.8-32.9,14.3-27.3,35.5c5.6,21.2,35.3,12.1,39.3,6.8c4-5.3-13.2,3.1-19.2-12  c-4.8-12.1,3.6-20.1,15.2-28c5.6-3.8,13.2-6.8,12-16.6c-0.8-6.8-12.8-12.1-24.8-18.9c-12-6.8-58.5-28.7-77-37  C120.2,239.9,113.1,238.4,107,238.4L107,238.4z M39.1,249.5l-0.4,0.2l0.3,0.5c0.3,0.5,0.4,1.1,0.2,1.5c-0.1,0.3-0.7,0.7-1.7,1.2  l-11.9,6.1l-1.2-2.1c-0.3-0.6-0.5-1.2-0.5-1.7c0-0.4,0.1-0.9,0.4-1.4c0.2-0.3,0.6-0.6,1.2-1l-0.2-0.4l-3.6,2.1v0l6.9,12l3.8-1.7  l-0.2-0.4c-0.7,0.3-1.4,0.4-2,0.4c-0.6,0-1-0.2-1.4-0.5c-0.2-0.2-0.6-0.7-1-1.4l-1-1.8l11.9-6.1c0.9-0.4,1.5-0.6,1.8-0.6  c0.5,0,1,0.4,1.4,1l0.3,0.5l0.4-0.2L39.1,249.5L39.1,249.5z M46.8,261.7l-12.3,8c-0.8,0.5-1.4,0.8-1.7,0.8c-0.6,0-1-0.3-1.5-0.9  l-0.3-0.5l-0.4,0.2l3.5,4.8l0.4-0.3l-0.3-0.4c-0.4-0.5-0.5-1-0.4-1.5c0.1-0.3,0.6-0.8,1.5-1.4l8.4-5.4l-4.8,15.4l2.7,3.7l0.4-0.2  c-0.3-0.4-0.5-0.7-0.6-0.9c-0.1-0.5-0.2-0.9-0.2-1.2c0-0.3,0.1-0.8,0.3-1.5l10.2-6.6c0.8-0.5,1.4-0.8,1.7-0.8c0.6,0,1.1,0.3,1.5,0.9  l0.4,0.5l0.4-0.2l-3.5-4.8l-0.4,0.3l0.3,0.5c0.4,0.5,0.5,1,0.4,1.5c0,0.3-0.5,0.8-1.5,1.4l-9,5.8l5.1-16.7L46.8,261.7L46.8,261.7z   M57.4,276.2l-4.4,1.6l0.3,0.4c1.2-0.3,2.2-0.4,2.9-0.3c0.6,0,1.1,0.2,1.5,0.4c0.4,0.2,0.9,0.7,1.6,1.5l2,2.1  c0.3,0.3,0.5,0.6,0.5,0.8c0,0.1,0,0.3,0,0.5c-0.1,0.1-0.4,0.5-1,0.9l-4.4,3.6l-2.5-2.8c-0.5-0.5-0.8-1-0.9-1.3c-0.1-0.3-0.1-0.7,0-1  c0.1-0.2,0.4-0.7,1-1.3l-0.3-0.3l-4.7,3.7l0.3,0.3c0.8-0.5,1.5-0.8,2.1-0.7c0.4,0,1,0.5,1.7,1.2l2.5,2.8l-5.3,4.3l-3.1-3.5  c-0.6-0.6-0.9-1.1-1.1-1.5c-0.1-0.4-0.1-0.8,0-1.2c0.1-0.4,0.5-0.9,1.1-1.6l-0.3-0.4l-2.9,2.5l8.9,9.8l0.3-0.3l-0.4-0.5  c-0.5-0.5-0.7-1-0.6-1.4c0.1-0.3,0.5-0.8,1.4-1.5l8.8-7.1c0.7-0.5,1.1-0.8,1.4-0.9c0.2-0.1,0.5-0.1,0.8,0c0.4,0.1,0.7,0.4,1,0.7  l0.4,0.4l0.3-0.3L57.4,276.2L57.4,276.2z M66.9,286.9l-0.3,0.3l0.4,0.4c0.5,0.4,0.8,0.9,0.7,1.4c0,0.3-0.3,0.9-1.1,1.7l-7.9,8  c-0.6,0.7-1.2,1-1.5,1.1c-0.5,0.1-1.1-0.1-1.7-0.6l-0.4-0.4l-0.3,0.3l3.7,3.2l14.1-5.5l-4.7,13.6l3.7,3.2l0.3-0.3  c-0.5-0.4-0.8-0.8-1-1.2c-0.1-0.3-0.1-0.6,0-0.9c0.1-0.3,0.4-0.8,0.9-1.3l7.9-8c0.7-0.7,1.2-1.1,1.5-1.1c0.5-0.1,1.1,0,1.6,0.5  l0.4,0.4l0.3-0.3l-4.6-4l-0.3,0.3l0.4,0.4c0.5,0.4,0.7,0.9,0.7,1.4c0,0.3-0.4,0.8-1.1,1.6l-8,8.2l5.1-14.6l-0.3-0.3l-15.2,6l8.1-8.2  c0.6-0.7,1.1-1.1,1.5-1.1c0.5-0.1,1.1,0,1.7,0.5l0.4,0.4l0.3-0.3L66.9,286.9L66.9,286.9z M87.7,304l-0.3,0.4l0.5,0.3  c0.5,0.4,0.8,0.8,0.9,1.3c0,0.3-0.3,0.9-0.9,1.7L80,318.1l-2.1-1.4c-0.6-0.4-1-0.8-1.2-1.3c-0.2-0.4-0.2-0.9-0.2-1.4  c0-0.3,0.2-0.8,0.6-1.4l-0.4-0.3l-2.3,3.3l11.7,8l2.6-3.1l-0.4-0.2c-0.5,0.6-1,0.9-1.6,1.1c-0.5,0.2-1.1,0.2-1.5,0.1  c-0.3-0.1-0.8-0.4-1.5-0.8l-1.7-1.2l7.9-10.3c0.6-0.8,1-1.2,1.3-1.3c0.5-0.1,1.1,0,1.7,0.4l0.5,0.3l0.3-0.4L87.7,304L87.7,304z   M96,309.8l-0.2,0.4c0.8,0.5,1.4,1.1,1.7,1.7c0.3,0.6,0.5,1.6,0.7,2.9l0.6,5.9c-1.5-0.4-2.7-0.5-3.7-0.2c-1,0.3-1.8,0.9-2.4,1.8  c-0.5,0.8-0.7,1.7-0.5,2.6c0.1,0.9,0.5,1.7,1.2,2.3c0.6,0.6,1.8,1.4,3.4,2.3l5.5,3.1l0.2-0.4l-0.5-0.3c-0.6-0.3-0.9-0.7-1-1.2  c0-0.3,0.1-1,0.7-1.9l5.8-9.3c0.5-0.8,0.9-1.3,1.2-1.4c0.5-0.2,1.1-0.2,1.7,0.1l0.6,0.3l0.2-0.4l-6.5-3.6l-0.2,0.4l0.6,0.3  c0.6,0.3,0.9,0.7,1,1.1c0.1,0.3-0.2,1-0.7,1.9l-2.6,4.2c-0.1,0-0.2-0.1-0.3-0.2c-0.1,0-0.2-0.1-0.3-0.2c-0.2-0.1-0.5-0.3-0.9-0.5  l-1-9.6L96,309.8L96,309.8z M111.9,318.7l-0.2,0.4c0.6,0.3,1.1,0.7,1.3,1.2c0.2,0.4,0.3,1.3,0.3,2.5l-0.4,15.1l0.4,0.1l11.7-10.1  c1-0.9,1.9-1.5,2.4-1.7c0.3-0.1,0.8,0,1.5,0.1l0.2-0.4l-5.1-2.2l-0.2,0.4c0.8,0.4,1.2,0.7,1.4,1c0.1,0.3,0.1,0.5,0,0.8  c-0.1,0.3-0.5,0.7-1,1.2L122,329l-6.3-2.6l0-2.5c0-0.9,0.1-1.5,0.2-1.8c0.1-0.2,0.3-0.4,0.7-0.5c0.3-0.1,0.8,0,1.4,0.2l0.2-0.4  L111.9,318.7L111.9,318.7z M98.6,321.9c0.9,0,1.9,0.3,2.9,0.9c0.1,0,0.1,0.1,0.3,0.2h0l0,0l0,0h0l0,0h0v0h0l-3.8,5.9  c-0.8-0.2-1.4-0.5-1.9-0.7c-1-0.5-1.6-1.2-1.8-2.1c-0.2-0.9,0-1.8,0.5-2.7c0.6-0.9,1.4-1.5,2.5-1.7C98,321.9,98.3,321.9,98.6,321.9  L98.6,321.9z M133.7,327.3l-0.1,0.4l0.6,0.2c0.6,0.2,1,0.5,1.2,1c0.1,0.3,0,0.9-0.3,2l-1.7,4.6h0c-0.5-0.3-0.9-0.5-1.4-0.8  c-0.5-0.1-0.9-0.3-1.3-0.5c-1.6-0.5-3-0.5-4.2,0c-1.2,0.5-2.1,1.5-2.5,2.7c-0.3,1-0.3,1.9,0,2.7c0.3,0.9,0.9,1.6,1.7,2.2  c0.7,0.5,1.9,1.1,3.4,1.6l6.1,2l0.1-0.4l-0.6-0.2c-0.6-0.2-1-0.5-1.2-1c-0.1-0.3,0-1,0.3-1.9l3.7-10.3c0.3-0.9,0.6-1.4,0.9-1.6  c0.4-0.3,1-0.3,1.7-0.1l0.6,0.2l0.2-0.4L133.7,327.3L133.7,327.3z M115.6,327.3l5.6,2.4l-5.8,5L115.6,327.3L115.6,327.3z   M143.5,330.3L141,334l0.6,0.1c0.8-0.9,1.5-1.5,2.2-1.9c0.5-0.3,1-0.4,1.5-0.5c0.4,0,1.2,0.1,2.2,0.3l2.9,0.7  c0.5,0.1,0.8,0.2,0.9,0.3c0.1,0.1,0.2,0.3,0.2,0.4c0,0.2,0,0.6-0.2,1.4l-1.4,5.3l-3.8-0.8c-0.7-0.1-1.2-0.3-1.5-0.6  c-0.3-0.2-0.5-0.5-0.6-0.8c0-0.2,0-0.8,0-1.6l-0.5-0.1l-1.4,5.6l0.4,0.1c0.3-0.9,0.7-1.5,1.2-1.8c0.4-0.2,1.1-0.1,2.1,0l3.8,0.9  l-1.6,6.4l-4.8-1.1c-0.8-0.2-1.4-0.4-1.7-0.6c-0.4-0.3-0.7-0.6-0.8-1c-0.1-0.3-0.2-1-0.1-1.9l-0.5-0.1l-0.7,3.6l13.3,3l0.1-0.4  l-0.6-0.1c-0.7-0.1-1.2-0.4-1.4-0.8c-0.1-0.3-0.1-1,0.1-2l2.7-10.6c0.2-0.7,0.4-1.3,0.5-1.5c0.1-0.3,0.4-0.4,0.7-0.4  c0.4-0.1,0.8-0.1,1.2,0l0.6,0.1l0.1-0.4L143.5,330.3L143.5,330.3z M165.8,334.7c-2.3,0.1-4.1,0.7-5.6,1.8c-1.7,1.4-2.7,3.2-3,5.5  c-0.2,1.8,0,3.3,0.6,4.7c0.7,1.4,1.7,2.5,2.9,3.2c1.3,0.7,3.2,1.2,5.9,1.6l7.2,0.8l0-0.5l-0.6,0c-0.6-0.1-1.1-0.3-1.4-0.7  c-0.2-0.2-0.2-0.9-0.1-2l1.4-10.7c0.1-0.9,0.3-1.5,0.5-1.8c0.3-0.4,0.9-0.6,1.7-0.5l0.6,0.1l0-0.5l-7.8-0.9  C167.4,334.7,166.6,334.6,165.8,334.7L165.8,334.7z M130.3,335.1c0.3,0,0.6,0.1,0.9,0.1c0.2,0.1,0.5,0.2,0.8,0.3l0,0h0.1l0,0l0,0h0  l0.1,0l0,0h0l0.1,0l0,0h0.1l0,0l0.1,0l0,0h0.1l0,0l-2.4,6.6c-0.7-0.1-1.3-0.2-1.7-0.3c-0.7-0.2-1.3-0.5-1.7-1  c-0.4-0.4-0.7-1-0.8-1.7c-0.1-0.7,0-1.4,0.2-2.1c0.4-1,1-1.7,1.8-2.1C129.2,335.2,129.8,335.1,130.3,335.1L130.3,335.1z   M167.5,335.6c0.2,0,0.5,0,0.7,0.1h0.1l0.1,0h0.1l0.2,0h0.1l0.1,0l0.1,0h0.2l0.1,0l0.2,0l0.2,0l0.1,0l0.2,0l0.2,0l0.2,0.1l0.2,0  l-1.9,14.1c-1,0.1-2,0.1-2.7,0c-2.1-0.2-3.7-1.1-4.8-2.6c-1.2-1.5-1.6-3.3-1.3-5.6c0.3-2.3,1.2-4,2.7-5.2  C164.3,336,165.8,335.6,167.5,335.6L167.5,335.6z"/>
<g>
	<path class="st0" d="M542.8,263.3l9.4-63.9c2.5-16.8,6-38.2,10.3-60.5h-0.7c-8.5,20-18.2,41.4-26.7,58.4l-31.7,63.5h-25.8   l-5.5-62.8c-1.4-17-2.5-38.4-3.5-59.1h-0.5c-4.4,20.5-9,43.7-12.9,60.5L440,263.3h-30.4l38.9-155h44.4l4.8,58.9   c0.9,14.5,2.5,32.2,2.8,49.4h0.9c6-17.2,14.3-35.4,20.9-49.4l28.8-58.9h44.8l-20.9,155H542.8z"/>
	<path class="st0" d="M694.8,256.9c-13.1,6.7-29.4,8.7-41.9,8.7c-32.2,0-48.8-18.2-48.8-47.4c0-34.3,24.8-69.9,65.5-69.9   c22.8,0,39.1,12.6,39.1,33.6c0,28.7-27.8,39.1-72.9,37.9c0,3.2,1.1,8.3,3.4,11.5c4.4,5.7,12,8.7,21.6,8.7c12.2,0,22.5-2.8,31.5-7.1   L694.8,256.9z M665.6,172.4c-15.4,0-24.1,12.6-26.4,23.2c25.8,0.2,38.6-3.5,38.6-13.6C677.8,176.4,673.2,172.4,665.6,172.4z"/>
	<path class="st0" d="M835.1,100l-22.8,119.6c-2.8,14.5-4.8,30.4-5.3,43.7h-30.4l1.6-18.2h-0.5c-9.9,14.9-23.7,20.7-36.8,20.7   c-19.1,0-35-15.2-35-42.5c0-39.1,28.3-75,70.8-75c4.6,0,10.6,0.7,15.4,2.5L802,100H835.1z M787.5,177.3c-2.5-2.1-7.6-3.9-13.1-3.9   c-19.8,0-33.8,23-33.8,44.6c0,13.6,6,21.2,15.6,21.2c9.4,0,21.2-10.1,25.5-31.5L787.5,177.3z"/>
	<path class="st0" d="M827.3,263.3l21.4-112.5h33.1l-21.4,112.5H827.3z M853.3,120.7c0.2-11.3,9-18.9,19.1-18.9   c9.7,0,16.6,6.4,16.6,16.3c0,11.7-9,18.6-19.5,18.6C860.2,136.8,853.3,130.6,853.3,120.7z"/>
	<path class="st0" d="M966.7,259.8c-7.1,3.4-18.6,5.7-32,5.7c-27.8,0-47.4-16.8-47.4-46c0-40,30.6-71.3,73.4-71.3   c9.7,0,17.9,1.8,22.8,3.9l-8,25.3c-3.9-1.6-8.5-2.8-15.2-2.8c-23.7,0-38.2,20-38.2,41.2c0,15.4,9.7,23.2,22.1,23.2   c9.7,0,16.6-2.3,22.3-4.6L966.7,259.8z"/>
	<path class="st0" d="M1045.4,263.3c0.2-6.7,0.9-14.3,1.6-22.3h-0.7c-10.3,18.6-24.6,24.8-37.7,24.8c-20.2,0-34-15.6-34-39.1   c0-37.9,25.1-78.4,80.5-78.4c13.3,0,27.8,2.5,37.3,5.5l-12,58.9c-2.8,14.5-4.8,36.6-4.4,50.6H1045.4z M1055,174.3   c-2.5-0.5-5.8-0.9-9-0.9c-21.4,0-37,26.2-37,47.1c0,11,4.4,18.6,13.6,18.6c9.9,0,22.1-11.3,27.1-38.9L1055,174.3z"/>
	<path class="st0" d="M1095.7,263.3l12.6-66.9c3.2-17,4.6-35.9,5.8-45.5h28.7c-0.7,7.6-1.4,15.2-2.1,23h0.7   c7.8-14.9,20.5-25.5,35.9-25.5c2.1,0,4.1,0,6.2,0.2l-6.4,32.2c-1.6-0.2-3.4-0.2-5.3-0.2c-21.2,0-31,18.9-35.2,40.9l-7.8,41.9   H1095.7z"/>
	<path class="st0" d="M1265.7,256.9c-13.1,6.7-29.4,8.7-41.9,8.7c-32.2,0-48.8-18.2-48.8-47.4c0-34.3,24.8-69.9,65.5-69.9   c22.8,0,39.1,12.6,39.1,33.6c0,28.7-27.8,39.1-72.9,37.9c0,3.2,1.1,8.3,3.4,11.5c4.4,5.7,12,8.7,21.6,8.7c12.2,0,22.5-2.8,31.5-7.1   L1265.7,256.9z M1236.5,172.4c-15.4,0-24.1,12.6-26.4,23.2c25.8,0.2,38.6-3.5,38.6-13.6C1248.7,176.4,1244.1,172.4,1236.5,172.4z"/>
</g>
</svg>