<?xml version="1.0" encoding="utf-8"?>
<svg xmlns="http://www.w3.org/2000/svg" version="1.2" viewBox="0 0 224 224" width="224" height="224">
	<title>BRATTON-ai-svg-svg</title>
	<style>
		.s0 { fill: #fafafa } 
		.s1 { fill: #1975bb } 
	</style>
	<g id="Layer 1">
		<g id="&lt;Group&gt;">
			<g id="&lt;Group&gt;">
				<g id="&lt;Group&gt;">
					<path id="&lt;Compound Path&gt;" class="s0" d="m23.2 219q-3.3 0-5.7-2.5-2.5-2.5-2.5-5.8v-198.4q0-3.3 2.5-5.8 2.4-2.5 5.7-2.5h110.8q14.2 0 25.9 3.7 11.6 3.7 20.9 10.9 9.6 7.6 14.7 17.1 5.1 9.5 5.1 21.8 0 15.1-6.6 26.6-6.6 11.5-20.6 18.6 14.3 5.8 21.7 14.3 13.7 15.9 13.7 40.8 0 27.7-21.1 45-20 16.2-52.1 16.2z"/>
				</g>
			</g>
			<path id="&lt;Path&gt;" class="s1" d="m103 42.2c-0.6-7.8 0-14.3 5.6-15.7 5.7-1.5 12.1-0.3 16 7.4 0.9 1.8 0.7 4 0.8 6.3 0.1 1.3-0.6 2.8 0.3 3.6 2.1 2 1.1 2.1-0.5 3.6-1 1.1-1 2-1.5 3.7-0.7 2.7-2.1 4.2-3.7 4.2-4.7 0-7 1.3-3.7 5.1 2.1 2.4 3.3 4.6 4.4 7.1 0.7 1.6 1.7 2.9 3.3 4.2 2.9 2.5 5 5.6 6.1 8.8 4.2-1.6 7.3-6.7 10.1-11.8 1.4-2.4 0.5-4.2-0.6-6.1-1.3-2.4-1.8-4.6-2.7-6.7-1-2.3 1.2-3.4 2.3-0.8 0.3 0.9 0.8 1.7 1.3 2.6 1.8 3.5 2.7-2.4 3.2-4.9 0.4-2 0.6-2.9 0.8-4.3 0.3-2.6 2-3.1 1.9-0.3 2-3.6 3-3.7 2.6 0-0.7 7.1 0.9 7.9 1.9 2.7 0.7-3.5 3.5-4.2 1.7 1.3-1.6 4.8-1.5 5.3 0.8 2.1 2.6-3.3 3.2-2.2 0.1 3.2-2 3.6-3.8 7.6-5.2 11.5-3.1 8.6-7.7 16.6-13.6 24.3-1.9 2.5-4.6 3.5-8 1.1-2.5-1.7-4.5-4-6.7-6-1.2 5.8-2 11.6-2 17.7 0 3.3 0.3 5 3.4 5.8 12.1 3 22.3 9.1 31.2 15.8 3.9 2.9 4.3 6 1.6 9.5-7.1 9-14.4 18-21.7 26.8-2.2 3.3-2.1 5.6-1.2 7.7 1.2 2.8 0.3 5.7 1.4 7.9 1.1 2.2 3.6 3.4 5.8 4.9 5.8 3.8 3.8 5.9-5.6 4.1-5.8-1.1-10.5-6.1-16-8.3-7.2-2.8-4.2-7.2-2.2-8.3 1.5-0.8 2.8-2.3 3.8-3.2 3.1-2.8 3.9-6.7 4.9-10.1 2.6-9.5 7-16.5 11.6-22.8-10.9 0.1-19.8-2-28.5-1.3-5.5 10.3-13 19.3-22 30.6-1.9 2.5-4.9 3.6-7.9 5.4-5.8 3.6-10.5 8.9-16.4 12.5-8.3 5-13.8 10.5-17.5 17.3 1.2 0.2 2.4 0.3 3.6 0.5 0.9 0.2 0.6 0.8-0.4 1.1-1 0.2-2-0.1-3.1-0.4-0.6 2.5-2 3.6-3 5.4-1.2 2.4-0.8 5.2 0.9 6.7 2.8 2.4 2.8 4-3 3.8-4.5-0.3-5.8-3.4-7-6.8-1.6-5-1-10.1-2-15-1.2-5.6 0.4-5.7 3.9-6.2 6-0.8 11.2-3.9 13.6-8.7 4.4-8.6 10.2-15.5 18.3-18.2 5.6-2 8.2-6.5 10-11.3 2-5.3 4.5-10.3 7.1-15.3 2.3-4.3 2.6-8.5 2.6-12.9-0.1-6.2 1.9-10.5 5.1-13.4-0.2-4 0.1-6.7 2.8-9-0.1-10.2 0.4-20.6 0.2-30.7-3.6-1.2-5.3 1.4-6.1 5.8-0.9 4.9-2 9.5-1.9 15.1 0.1 3.4 0.5 5.1 3.6 8.6 2.2 2.5 1.4 4.2-1 2.5-4.2-3-2.8 1-3 3.8-0.2 1.5-0.1 4.5-1.4 2.1 0.4 2.9-1.1 4.2-1.7 2.7-1.3 1.4-1.5 0.5-1.3-1.5 0.8-7-1-4.6-1.3-1.2-0.2 3.6-2.6 4-1.5-1.3 1-4.7-1-3.8-1.6-0.8-0.8 3.3-2 1.5-1.3-1.3 1-4.1 2-8.2 3.6-12.1 0.9-2.4 0.3-4.6-0.1-7.3-0.8-5-0.8-10.4-0.6-15.6 0.2-3.6 0.6-5.6 2.9-6.7 6.5-3.3 13.1-6.3 19.6-9.5 3.9-4.1 4.4-3.5 3.8-11.1z"/>
		</g>
	</g>
</svg>