<?xml version="1.0" encoding="utf-8"?>
<svg xmlns="http://www.w3.org/2000/svg" version="1.2" viewBox="0 0 842 343" width="842" height="343">
	<title>BRATTON-ai</title>
	<defs>
		<linearGradient id="g1" x2="1" gradientUnits="userSpaceOnUse" gradientTransform="matrix(0,-214.939,193.828,0,-1.075,244.673)">
			<stop offset="0" stop-color="#f7931d"/>
			<stop offset=".697" stop-color="#f05a29"/>
			<stop offset="1" stop-color="#be1e2d"/>
		</linearGradient>
		<linearGradient id="g2" x2="1" gradientUnits="userSpaceOnUse" gradientTransform="matrix(0,-91.597,105.078,0,232.395,244.526)">
			<stop offset="0" stop-color="#f7931d"/>
			<stop offset=".697" stop-color="#f05a29"/>
			<stop offset="1" stop-color="#be1e2d"/>
		</linearGradient>
		<linearGradient id="g3" x2="1" gradientUnits="userSpaceOnUse" gradientTransform="matrix(0,-91.597,121.301,0,352.85,244.526)">
			<stop offset="0" stop-color="#f7931d"/>
			<stop offset=".697" stop-color="#f05a29"/>
			<stop offset="1" stop-color="#be1e2d"/>
		</linearGradient>
		<linearGradient id="g4" x2="1" gradientUnits="userSpaceOnUse" gradientTransform="matrix(0,-91.597,87.974,0,421.955,244.526)">
			<stop offset="0" stop-color="#f7931d"/>
			<stop offset=".697" stop-color="#f05a29"/>
			<stop offset="1" stop-color="#be1e2d"/>
		</linearGradient>
		<linearGradient id="g5" x2="1" gradientUnits="userSpaceOnUse" gradientTransform="matrix(0,-91.597,87.975,0,515.085,244.526)">
			<stop offset="0" stop-color="#f7931d"/>
			<stop offset=".697" stop-color="#f05a29"/>
			<stop offset="1" stop-color="#be1e2d"/>
		</linearGradient>
		<linearGradient id="g6" x2="1" gradientUnits="userSpaceOnUse" gradientTransform="matrix(0,-94.75,109.821,0,624.2,245.928)">
			<stop offset="0" stop-color="#f7931d"/>
			<stop offset=".697" stop-color="#f05a29"/>
			<stop offset="1" stop-color="#be1e2d"/>
		</linearGradient>
		<linearGradient id="g7" x2="1" gradientUnits="userSpaceOnUse" gradientTransform="matrix(0,-91.597,95.568,0,729.026,244.526)">
			<stop offset="0" stop-color="#f7931d"/>
			<stop offset=".697" stop-color="#f05a29"/>
			<stop offset="1" stop-color="#be1e2d"/>
		</linearGradient>
		<linearGradient id="g8" x2="1" gradientUnits="userSpaceOnUse" gradientTransform="matrix(0,-50.712,31.934,0,-2.219,312.209)">
			<stop offset="0" stop-color="#1975bb"/>
			<stop offset="1" stop-color="#293890"/>
		</linearGradient>
		<linearGradient id="g9" x2="1" gradientUnits="userSpaceOnUse" gradientTransform="matrix(0,-50.64,42.056,0,61.285,312.209)">
			<stop offset="0" stop-color="#1975bb"/>
			<stop offset="1" stop-color="#293890"/>
		</linearGradient>
		<linearGradient id="g10" x2="1" gradientUnits="userSpaceOnUse" gradientTransform="matrix(0,-50.64,45.889,0,124.411,312.209)">
			<stop offset="0" stop-color="#1975bb"/>
			<stop offset="1" stop-color="#293890"/>
		</linearGradient>
		<linearGradient id="g11" x2="1" gradientUnits="userSpaceOnUse" gradientTransform="matrix(0,-51.871,29.936,0,154.044,312.788)">
			<stop offset="0" stop-color="#1975bb"/>
			<stop offset="1" stop-color="#293890"/>
		</linearGradient>
		<linearGradient id="g12" x2="1" gradientUnits="userSpaceOnUse" gradientTransform="matrix(0,-50.64,7.25,0,54.376,312.209)">
			<stop offset="0" stop-color="#1975bb"/>
			<stop offset="1" stop-color="#293890"/>
		</linearGradient>
		<linearGradient id="g13" x2="1" gradientUnits="userSpaceOnUse" gradientTransform="matrix(0,-51.871,45.601,0,242.495,312.788)">
			<stop offset="0" stop-color="#1975bb"/>
			<stop offset="1" stop-color="#293890"/>
		</linearGradient>
		<linearGradient id="g14" x2="1" gradientUnits="userSpaceOnUse" gradientTransform="matrix(0,-50.929,49.552,0,304.555,312.209)">
			<stop offset="0" stop-color="#1975bb"/>
			<stop offset="1" stop-color="#293890"/>
		</linearGradient>
		<linearGradient id="g15" x2="1" gradientUnits="userSpaceOnUse" gradientTransform="matrix(0,-50.64,30.05,0,339.819,312.209)">
			<stop offset="0" stop-color="#1975bb"/>
			<stop offset="1" stop-color="#293890"/>
		</linearGradient>
		<linearGradient id="g16" x2="1" gradientUnits="userSpaceOnUse" gradientTransform="matrix(0,-50.712,42.302,0,444.083,312.209)">
			<stop offset="0" stop-color="#1975bb"/>
			<stop offset="1" stop-color="#293890"/>
		</linearGradient>
		<linearGradient id="g17" x2="1" gradientUnits="userSpaceOnUse" gradientTransform="matrix(0,-50.64,42.954,0,503.456,312.209)">
			<stop offset="0" stop-color="#1975bb"/>
			<stop offset="1" stop-color="#293890"/>
		</linearGradient>
		<linearGradient id="g18" x2="1" gradientUnits="userSpaceOnUse" gradientTransform="matrix(0,-50.566,29.397,0,540.923,312.136)">
			<stop offset="0" stop-color="#1975bb"/>
			<stop offset="1" stop-color="#293890"/>
		</linearGradient>
		<linearGradient id="g19" x2="1" gradientUnits="userSpaceOnUse" gradientTransform="matrix(0,-50.64,39.901,0,602.739,312.209)">
			<stop offset="0" stop-color="#1975bb"/>
			<stop offset="1" stop-color="#293890"/>
		</linearGradient>
		<linearGradient id="g20" x2="1" gradientUnits="userSpaceOnUse" gradientTransform="matrix(0,-50.929,49.551,0,667.276,312.209)">
			<stop offset="0" stop-color="#1975bb"/>
			<stop offset="1" stop-color="#293890"/>
		</linearGradient>
		<linearGradient id="g21" x2="1" gradientUnits="userSpaceOnUse" gradientTransform="matrix(0,-50.712,31.935,0,707.086,312.209)">
			<stop offset="0" stop-color="#1975bb"/>
			<stop offset="1" stop-color="#293890"/>
		</linearGradient>
		<linearGradient id="g22" x2="1" gradientUnits="userSpaceOnUse" gradientTransform="matrix(0,-50.639,44.839,0,767.872,312.208)">
			<stop offset="0" stop-color="#1975bb"/>
			<stop offset="1" stop-color="#293890"/>
		</linearGradient>
	</defs>
	<style>
		.s0 { fill: url(#g1) } 
		.s1 { fill: url(#g2) } 
		.s2 { fill: url(#g3) } 
		.s3 { fill: url(#g4) } 
		.s4 { fill: url(#g5) } 
		.s5 { fill: url(#g6) } 
		.s6 { fill: url(#g7) } 
		.s7 { fill: #1975bb } 
		.s8 { fill: url(#g8) } 
		.s9 { fill: url(#g9) } 
		.s10 { fill: url(#g10) } 
		.s11 { fill: url(#g11) } 
		.s12 { fill: url(#g12) } 
		.s13 { fill: url(#g13) } 
		.s14 { fill: url(#g14) } 
		.s15 { fill: url(#g15) } 
		.s16 { fill: url(#g16) } 
		.s17 { fill: url(#g17) } 
		.s18 { fill: url(#g18) } 
		.s19 { fill: url(#g19) } 
		.s20 { fill: url(#g20) } 
		.s21 { fill: url(#g21) } 
		.s22 { fill: url(#g22) } 
	</style>
	<g id="Layer 1">
		<g id="&lt;Group&gt;">
			<g id="&lt;Group&gt;">
				<g id="&lt;Group&gt;">
					<path id="&lt;Compound Path&gt;" class="s0" d="m29.4 244.7q-3.3 0-5.7-2.5-2.5-2.5-2.5-5.8v-198.4q0-3.3 2.5-5.8 2.4-2.5 5.7-2.5h110.8q14.2 0 25.9 3.7 11.6 3.7 20.9 10.9 9.6 7.6 14.7 17.1 5.1 9.5 5.1 21.8 0 15.1-6.6 26.6-6.6 11.5-20.6 18.6 14.3 5.8 21.7 14.3 13.7 15.9 13.7 40.8 0 27.7-21.1 45-20 16.2-52.1 16.2z"/>
				</g>
				<g id="&lt;Group&gt;">
					<path id="&lt;Compound Path&gt;" fill-rule="evenodd" class="s1" d="m252.8 212.2v28.8q0 1.4-1 2.5-1.1 1-2.6 1h-25.9q-1.4 0-2.5-1-1-1.1-1-2.5v-84.6q0-1.4 1-2.4 1.1-1.1 2.5-1.1h58.6q15.1 0 24.2 6.7 9.8 7.2 9.8 19 0 13.4-8 19.3-2 1.5-4.6 2.9-2.7 1.3-5.8 2.4 3.7 2 6.3 4.3 2.7 2.3 4.4 4.7l16 27q1.2 1.9 0.2 3.6-1 1.7-3.2 1.7h-29.7q-0.9 0-1.8-0.6-0.9-0.5-1.3-1.4l-15-27.8 0.1 0.3q-0.4-0.6-1-1.2-0.5-0.6-1.1-0.9-0.9-0.7-7.2-0.7zm-0.7-38.4v17.5h14q8.5 0 13-2 4.4-2 4.4-7.2 0-4.3-3.4-6.3-3.4-2-9.8-2z"/>
				</g>
				<g id="&lt;Group&gt;">
					<path id="&lt;Compound Path&gt;" fill-rule="evenodd" class="s2" d="m417 244.5q-0.8 0-1.8-0.6-1-0.5-1.3-1.4l-6-11.4h-43.8l-6 11.4q-0.4 0.9-1.4 1.4-0.9 0.6-1.8 0.6h-24.2q-2.4 0-3.4-1.6-1.1-1.6 0.1-3.6l48-84.5q0.4-0.7 1.4-1.3 1.1-0.6 1.8-0.6h20.6q0.9 0 1.8 0.6 0.9 0.6 1.4 1.4l45.2 84.5q1 2 0 3.5-0.9 1.6-3.3 1.6zm-41.4-34h21.7l-10.5-20.3z"/>
				</g>
				<g id="&lt;Group&gt;">
					<path id="&lt;Compound Path&gt;" class="s3" d="m456.8 244.5q-1.4 0-2.4-1-1.1-1.1-1.1-2.5v-65.1h-24.1q-1.6 0-2.6-1-0.9-1.1-0.9-2.6v-15.9q0-1.4 0.9-2.4 1-1.1 2.6-1.1h80.8q1.5 0 2.6 1.1 1 1 1 2.4v15.9q0 1.5-1 2.6-1.1 1-2.6 1h-24.1v65.1q0 1.4-1 2.5-1 1-2.5 1z"/>
				</g>
				<g id="&lt;Group&gt;">
					<path id="&lt;Compound Path&gt;" class="s4" d="m550 244.5q-1.4 0-2.5-1-1-1.1-1-2.5v-65.1h-24.2q-1.5 0-2.5-1-1-1.1-1-2.6v-15.9q0-1.4 1-2.4 1-1.1 2.5-1.1h80.8q1.6 0 2.6 1.1 1.1 1 1.1 2.4v15.9q0 1.5-1.1 2.6-1 1-2.6 1h-24v65.1q0 1.4-1 2.5-1 1-2.5 1z"/>
				</g>
				<g id="&lt;Group&gt;">
					<path id="&lt;Compound Path&gt;" fill-rule="evenodd" class="s5" d="m706.1 234.2q-13.9 11.7-41 11.7-27.1 0-41-11.7-13.9-11.6-13.9-35.6 0-23.9 13.9-35.7 13.9-11.7 41-11.7 27.1 0 41 11.7 13.9 11.8 13.9 35.7 0 24-13.9 35.6zm-24.3-50.7q-5.7-5.1-16.7-5.1-11 0-16.7 5.1-5.8 5.1-5.8 15.1 0 10.1 5.8 15.1 5.7 5.1 16.7 5.1 11 0 16.7-5.1 5.8-5 5.8-15.1 0-10-5.8-15.1z"/>
				</g>
				<g id="&lt;Group&gt;">
					<path id="&lt;Compound Path&gt;" class="s6" d="m784 190.3q3.3 4.5 6.7 9.1v-43q0-1.4 1-2.4 1.1-1.1 2.6-1.1h22.8q1.5 0 2.6 1.1 1 1 1 2.4v84.6q0 1.4-1 2.5-1.1 1-2.6 1h-26.2q-0.6 0-1.5-0.4-0.9-0.4-1.4-1l-33-44.4v42.3q0 1.4-1 2.5-1.1 1-2.6 1h-22.8q-1.4 0-2.4-1-1.1-1.1-1.1-2.5v-84.6q0-1.4 1.1-2.4 1-1.1 2.4-1.1h26q0.7 0 1.7 0.5 1 0.5 1.2 1 5.1 7.1 10 13.7 4.8 6.6 9.9 13.2 3.3 4.5 6.6 9z"/>
				</g>
			</g>
			<path id="&lt;Path&gt;" class="s7" d="m109.2 67.9c-0.6-7.8 0-14.3 5.6-15.7 5.7-1.5 12.1-0.3 16 7.4 0.9 1.8 0.7 4 0.8 6.3 0.1 1.3-0.6 2.8 0.3 3.6 2.1 2 1.1 2.1-0.5 3.6-1 1.1-1 2-1.5 3.7-0.7 2.7-2.1 4.2-3.7 4.2-4.7 0-7 1.3-3.7 5.1 2.1 2.4 3.3 4.6 4.4 7.1 0.7 1.6 1.7 2.9 3.3 4.2 2.9 2.5 5 5.6 6.1 8.8 4.2-1.6 7.3-6.7 10.1-11.8 1.4-2.4 0.5-4.2-0.6-6.1-1.3-2.4-1.8-4.6-2.7-6.7-1-2.3 1.2-3.4 2.3-0.8 0.3 0.9 0.8 1.7 1.3 2.6 1.8 3.5 2.7-2.4 3.2-4.9 0.4-2 0.6-2.9 0.8-4.3 0.3-2.6 2-3.1 1.9-0.3 2-3.6 3-3.7 2.6 0-0.7 7.1 0.9 7.9 1.9 2.7 0.7-3.5 3.5-4.2 1.7 1.3-1.6 4.8-1.5 5.3 0.8 2.1 2.6-3.3 3.2-2.2 0.1 3.2-2 3.6-3.8 7.6-5.2 11.5-3.1 8.6-7.7 16.6-13.6 24.3-1.9 2.5-4.6 3.5-8 1.1-2.5-1.7-4.5-4-6.7-6-1.2 5.8-2 11.6-2 17.7 0 3.3 0.3 5 3.4 5.8 12.1 3 22.3 9.1 31.2 15.8 3.9 2.9 4.3 6 1.6 9.5-7.1 9-14.4 18-21.7 26.8-2.2 3.3-2.1 5.6-1.2 7.7 1.2 2.8 0.3 5.7 1.4 7.9 1.1 2.2 3.6 3.4 5.8 4.9 5.8 3.8 3.8 5.9-5.6 4.1-5.8-1.1-10.5-6.1-16-8.3-7.2-2.8-4.2-7.2-2.2-8.3 1.5-0.8 2.8-2.3 3.8-3.2 3.1-2.8 3.9-6.7 4.9-10.1 2.6-9.5 7-16.5 11.6-22.8-10.9 0.1-19.8-2-28.5-1.3-5.5 10.3-13 19.3-22 30.6-1.9 2.5-4.9 3.6-7.9 5.4-5.8 3.6-10.5 8.9-16.4 12.5-8.3 5-13.8 10.5-17.5 17.3 1.2 0.2 2.4 0.3 3.6 0.5 0.9 0.2 0.6 0.8-0.4 1.1-1 0.2-2-0.1-3.1-0.4-0.6 2.5-2 3.6-3 5.4-1.2 2.4-0.8 5.2 0.9 6.7 2.8 2.4 2.8 4-3 3.8-4.5-0.3-5.8-3.4-7-6.8-1.6-5-1-10.1-2-15-1.2-5.6 0.4-5.7 3.9-6.2 6-0.8 11.2-3.9 13.6-8.7 4.4-8.6 10.2-15.5 18.3-18.2 5.6-2 8.2-6.5 10-11.3 2-5.3 4.5-10.3 7.1-15.3 2.3-4.3 2.6-8.5 2.6-12.9-0.1-6.2 1.9-10.5 5.1-13.4-0.2-4 0.1-6.7 2.8-9-0.1-10.2 0.4-20.6 0.2-30.7-3.6-1.2-5.3 1.4-6.1 5.8-0.9 4.9-2 9.5-1.9 15.1 0.1 3.4 0.5 5.1 3.6 8.6 2.2 2.5 1.4 4.2-1 2.5-4.2-3-2.8 1-3 3.8-0.2 1.5-0.1 4.5-1.4 2.1 0.4 2.9-1.1 4.2-1.7 2.7-1.3 1.4-1.5 0.5-1.3-1.5 0.8-7-1-4.6-1.3-1.2-0.2 3.6-2.6 4-1.5-1.3 1-4.7-1-3.8-1.6-0.8-0.8 3.3-2 1.5-1.3-1.3 1-4.1 2-8.2 3.6-12.1 0.9-2.4 0.3-4.6-0.1-7.3-0.8-5-0.8-10.4-0.6-15.6 0.2-3.6 0.6-5.6 2.9-6.7 6.5-3.3 13.1-6.3 19.6-9.5 3.9-4.1 4.4-3.5 3.8-11.1z"/>
			<g id="&lt;Group&gt;">
				<g id="&lt;Group&gt;">
					<path id="&lt;Compound Path&gt;" fill-rule="evenodd" class="s8" d="m22.1 312.2v-50.7h16q7.3 0 11.6 3.9 4.3 3.9 4.3 10.5 0 4.4-2.2 7.9-2.2 3.4-6.1 4.9-3.8 1.5-11 1.5h-5.3v22zm24.4-36.5q0-7.8-9.6-7.8h-7.5v15.9h7.9q4.4 0 6.8-2.1 2.4-2.1 2.4-6z"/>
				</g>
				<g id="&lt;Group&gt;">
					<path id="&lt;Compound Path&gt;" class="s9" d="m105.7 261.6h7.1v50.6h-7.1v-22h-27.9v22h-7.1v-50.6h7.1v21.9h27.9z"/>
				</g>
				<g id="&lt;Group&gt;">
					<path id="&lt;Compound Path&gt;" class="s10" d="m166.3 261.6h9l-19.1 23.8v26.8h-7.7v-26.8l-19.1-23.8h9l13.8 17.4z"/>
				</g>
				<g id="&lt;Group&gt;">
					<path id="&lt;Compound Path&gt;" class="s11" d="m206.8 299.8q0-4.7-7-8.8l-5.8-3.4q-5.4-3.1-7.7-6.2-2.3-3-2.3-7 0-6 4.4-9.7 4.3-3.8 11.3-3.8 6.6 0 12.2 3.6v8.2q-5.8-5.3-12.4-5.3-3.7 0-6.1 1.7-2.4 1.6-2.4 4.2 0 2.3 1.8 4.3 1.7 1.9 5.6 4.1l5.8 3.3q9.8 5.5 9.8 14.1 0 6.1-4.3 9.9-4.3 3.8-11.1 3.8-7.9 0-14.4-4.6v-9.2q6.2 7.4 14.3 7.4 3.6 0 5.9-1.9 2.4-1.9 2.4-4.7z"/>
				</g>
				<g id="&lt;Group&gt;">
					<path id="&lt;Compound Path&gt;" class="s12" d="m227.6 261.6h7.3v50.6h-7.3z"/>
				</g>
				<g id="&lt;Group&gt;">
					<path id="&lt;Compound Path&gt;" class="s13" d="m276.8 306.1q9.2 0 18-5.6v7.9q-8 4.4-18.4 4.4-8.5 0-14.4-3.4-5.9-3.4-9.4-9.4-3.4-6-3.4-12.9 0-11.1 7.9-18.6 7.9-7.6 19.4-7.6 8 0 17.8 4.2v7.8q-8.9-5.1-17.4-5.1-8.7 0-14.5 5.5-5.7 5.5-5.7 13.8 0 8.3 5.7 13.7 5.6 5.3 14.4 5.3z"/>
				</g>
				<g id="&lt;Group&gt;">
					<path id="&lt;Compound Path&gt;" fill-rule="evenodd" class="s14" d="m327.7 261.3h5.1l22.7 50.9h-7.4l-6.8-15h-21.6l-6.3 15h-7.4zm10.6 29.5l-8.2-18.4-7.5 18.4z"/>
				</g>
				<g id="&lt;Group&gt;">
					<path id="&lt;Compound Path&gt;" class="s15" d="m367.5 261.6h7.2v44h22.8v6.6h-30z"/>
				</g>
				<g id="&lt;Group&gt;">
					<path id="&lt;Compound Path&gt;" class="s16" d="m453.3 261.5h42.3v6.4h-17.6v44.3h-7.3v-44.3h-17.4z"/>
				</g>
				<g id="&lt;Group&gt;">
					<path id="&lt;Compound Path&gt;" class="s17" d="m547.5 261.6h7.3v50.6h-7.3v-22h-28.4v22h-7.3v-50.6h7.3v21.9h28.4z"/>
				</g>
				<g id="&lt;Group&gt;">
					<path id="&lt;Compound Path&gt;" class="s18" d="m569.7 261.6h28.7v6.4h-21.4v15.5h20.7v6.5h-20.7v15.7h22.1v6.4h-29.4z"/>
				</g>
				<g id="&lt;Group&gt;">
					<path id="&lt;Compound Path&gt;" fill-rule="evenodd" class="s19" d="m614.9 312.2v-50.6h13q7.8 0 12.5 3.8 4.6 3.8 4.6 10.3 0 4.4-2.3 7.6-2.3 3.2-6.5 4.8 2.5 1.6 4.9 4.4 2.3 2.7 6.6 9.6 2.8 4.3 4.4 6.5l2.7 3.6h-8.8l-2.3-3.3q-0.1-0.2-0.4-0.6l-1.4-2-2.3-3.7-2.5-4q-2.3-3.1-4.2-5-1.9-1.8-3.5-2.6-1.5-0.8-5.1-0.8h-2v22zm9.7-44.5h-2.3v16h2.9q5.6 0 7.7-0.9 2.1-1 3.2-2.9 1.2-1.9 1.2-4.3 0-2.4-1.3-4.3-1.3-2-3.6-2.8-2.4-0.8-7.8-0.8z"/>
				</g>
				<g id="&lt;Group&gt;">
					<path id="&lt;Compound Path&gt;" fill-rule="evenodd" class="s20" d="m690.4 261.3h5.1l22.7 50.9h-7.4l-6.7-15h-21.6l-6.4 15h-7.4zm10.6 29.5l-8.1-18.4-7.6 18.4z"/>
				</g>
				<g id="&lt;Group&gt;">
					<path id="&lt;Compound Path&gt;" fill-rule="evenodd" class="s21" d="m731.4 312.2v-50.7h16q7.3 0 11.6 3.9 4.3 3.9 4.3 10.5 0 4.4-2.2 7.9-2.2 3.4-6 4.9-3.9 1.5-11.1 1.5h-5.3v22zm24.4-36.5q0-7.8-9.6-7.8h-7.5v15.9h7.9q4.4 0 6.8-2.1 2.4-2.1 2.4-6z"/>
				</g>
				<g id="&lt;Group&gt;">
					<path id="&lt;Compound Path&gt;" class="s22" d="m810.1 261.6h8.8l-18.7 23.8v26.8h-7.5v-26.8l-18.7-23.8h8.8l13.5 17.4z"/>
				</g>
			</g>
		</g>
	</g>
</svg>